<?xml version="1.0" encoding="utf-8"?>
<!-- Generator: Adobe Illustrator 24.3.0, SVG Export Plug-In . SVG Version: 6.00 Build 0)  -->
<svg version="1.1" id="Layer_1" xmlns="http://www.w3.org/2000/svg" xmlns:xlink="http://www.w3.org/1999/xlink" x="0px" y="0px"
	 viewBox="0 0 209.3 46.4" style="enable-background:new 0 0 209.3 46.4;" xml:space="preserve">
<style type="text/css">
	.st0{fill:#FFFFFF;}
	.st1{fill:#FBB03B;}
	.st2{opacity:0.34;}
	.st3{fill:none;stroke:url(#SVGID_1_);stroke-width:60;stroke-miterlimit:10;}
	.st4{fill:#231F20;}
	.st5{fill:#A7A7A7;}
	.st6{fill:#252525;}
	.st7{fill:none;stroke:#EAEAEA;stroke-miterlimit:10;}
	.st8{stroke:#000000;stroke-width:0.75;stroke-miterlimit:10;}
	.st9{fill:none;stroke:#EAEAEA;stroke-width:1.2454;stroke-miterlimit:10;}
	.st10{fill:#444444;}
	.st11{stroke:#000000;stroke-width:0.5;stroke-miterlimit:10;}
	.st12{fill:#00FF00;}
	.st13{fill:#C9C9C9;}
	.st14{fill:none;stroke:#EAEAEA;stroke-width:1.1085;stroke-miterlimit:10;}
	.st15{fill:#4D4D4D;}
	.st16{fill:#919191;}
	.st17{fill:#5C4A56;}
	.st18{fill:#808080;}
	.st19{fill:none;stroke:#333333;stroke-width:1.1085;stroke-miterlimit:10;}
	.st20{fill:#FFFFFF;stroke:#FFFFFF;stroke-width:0.75;stroke-miterlimit:10;}
	.st21{fill:#B3B3B3;}
	.st22{fill:#7D6E78;}
	.st23{fill:#963F12;}
	.st24{filter:url(#Adobe_OpacityMaskFilter);}
	.st25{mask:url(#SVGID_2_);}
	.st26{fill:#0F0F0F;}
	.st27{fill:#0A3542;}
	.st28{fill:#666666;}
	.st29{fill:#F2F2F2;}
	.st30{fill:none;stroke:#919191;stroke-miterlimit:10;}
	.st31{fill:#662D91;}
	.st32{fill:#333333;}
	.st33{fill:#059FF5;}
	.st34{fill:#3A3E43;}
	.st35{filter:url(#Adobe_OpacityMaskFilter_1_);}
	.st36{mask:url(#SVGID_3_);}
	.st37{fill:#0000FF;}
	.st38{fill:#EAEAEA;}
	.st39{fill:#F7931E;}
	.st40{fill:#1A1A1A;}
	.st41{fill:#191919;}
	.st42{fill:#E2E4E3;}
	.st43{fill:#D5D5D3;}
	.st44{fill:#B0AFB1;}
	.st45{fill:#030303;}
	.st46{fill:#606060;}
	.st47{fill:#F7F7F7;}
	.st48{fill:none;stroke:#F0F0F0;stroke-miterlimit:10;}
	.st49{fill:none;stroke:#FFFFFF;stroke-width:2;stroke-miterlimit:10;}
	.st50{fill:#FBCD3B;}
	.st51{fill:none;stroke:#677785;stroke-miterlimit:10;}
	.st52{fill:#677785;}
	.st53{fill:none;stroke:#333333;stroke-miterlimit:10;}
	.st54{fill:#F15A24;}
	.st55{fill:#FF931E;}
	.st56{fill:none;}
	.st57{fill:#ABABAB;}
	.st58{fill:#2EA44D;}
	.st59{fill:#8BD1FF;}
	.st60{fill:none;stroke:#4D4D4D;stroke-width:2;stroke-miterlimit:10;}
	.st61{fill:none;stroke:#24282E;stroke-miterlimit:10;}
	.st62{fill:none;stroke:#1A1A1A;stroke-width:0.6819;stroke-miterlimit:10;}
	.st63{fill:none;stroke:#444444;stroke-miterlimit:10;}
	.st64{fill:none;stroke:#1A1A1A;stroke-miterlimit:10;}
	.st65{fill:#FF7BAC;}
	.st66{fill:#FF1D25;}
	.st67{fill:#BDCCD4;}
	.st68{fill:#7AC943;}
	.st69{fill:#CCCCCC;}
	.st70{fill:#EAE1D2;}
	.st71{fill:#ED1E79;}
	.st72{fill:#FDFDFD;}
	.st73{fill:#00ED00;}
	.st74{fill:none;stroke:#EAEAEA;stroke-width:0.9993;stroke-miterlimit:10;}
	.st75{stroke:#FFFFFF;stroke-width:0.25;stroke-miterlimit:10;}
	.st76{fill:none;stroke:#EAEAEA;stroke-width:0.9817;stroke-miterlimit:10;}
	.st77{fill:#FFC637;}
	.st78{fill:#93278F;}
	.st79{opacity:0.4;}
	.st80{fill:none;stroke:#EAEAEA;stroke-width:0.986;stroke-miterlimit:10;}
	.st81{fill:none;stroke:#00FF00;stroke-width:3;stroke-miterlimit:10;}
	.st82{fill:#D5C4F3;}
	.st83{fill:#F05239;}
	.st84{fill:#00929B;}
	.st85{display:none;}
	.st86{display:inline;}
	.st87{fill:#F9F9F9;}
	.st88{fill:#B33FF5;}
	.st89{fill:#FCEE21;}
	.st90{fill:none;stroke:#EAEAEA;stroke-width:0.9089;stroke-miterlimit:10;}
	.st91{fill:#FFF937;}
	.st92{fill:#EBFFF9;}
	.st93{fill:url(#SVGID_16_);}
	.st94{fill:none;stroke:#D8D8D8;stroke-width:3;stroke-miterlimit:10;}
	.st95{fill:none;stroke:#EAEAEA;stroke-width:3;stroke-miterlimit:10;}
	.st96{fill:url(#SVGID_17_);}
	.st97{fill:none;stroke:#EAEAEA;stroke-width:1.0258;stroke-miterlimit:10;}
	.st98{fill:none;stroke:#EAEAEA;stroke-width:1.211;stroke-miterlimit:10;}
	.st99{fill:#22AD73;}
	.st100{fill:#353330;}
	.st101{fill:#D89700;}
	.st102{fill:#FCC500;}
	.st103{fill:#F2BD00;}
	.st104{fill:#EF8B1E;}
	.st105{fill:#FDFDFD;stroke:#000000;stroke-width:2.4232;stroke-miterlimit:10;}
	.st106{fill:none;stroke:#E6E6E6;stroke-width:0.9906;stroke-miterlimit:10;}
	.st107{fill:none;stroke:#E6E6E6;stroke-width:0.8905;stroke-miterlimit:10;}
	.st108{fill:none;stroke:#E6E6E6;stroke-width:0.9488;stroke-miterlimit:10;}
	.st109{fill:none;stroke:#000000;stroke-width:3;stroke-miterlimit:10;}
	.st110{fill:none;stroke:#E6E6E6;stroke-width:1.355;stroke-miterlimit:10;}
	.st111{fill:none;stroke:#E6E6E6;stroke-width:1.2182;stroke-miterlimit:10;}
	.st112{fill:none;stroke:#E6E6E6;stroke-width:1.2979;stroke-miterlimit:10;}
	.st113{fill:#22B573;}
	.st114{fill:none;stroke:#EAEAEA;stroke-width:1.9352;stroke-miterlimit:10;}
	.st115{fill:none;stroke:#EAEAEA;stroke-width:1.7945;stroke-miterlimit:10;}
	.st116{fill:none;stroke:#EAEAEA;stroke-width:1.0929;stroke-miterlimit:10;}
	.st117{fill:none;stroke:#EAEAEA;stroke-width:0.8653;stroke-miterlimit:10;}
	.st118{fill:none;stroke:#00FF00;stroke-width:2.6326;stroke-miterlimit:10;}
	.st119{fill:none;stroke:#EAEAEA;stroke-width:1.9809;stroke-miterlimit:10;}
	.st120{fill:none;stroke:#EAEAEA;stroke-width:1.4061;stroke-miterlimit:10;}
	.st121{fill:none;stroke:#E6E6E6;stroke-width:1.2103;stroke-miterlimit:10;}
	.st122{fill:none;stroke:#E6E6E6;stroke-width:1.0881;stroke-miterlimit:10;}
	.st123{fill:none;stroke:#E6E6E6;stroke-width:1.1592;stroke-miterlimit:10;}
	.st124{fill:none;stroke:#EAEAEA;stroke-width:1.1372;stroke-miterlimit:10;}
	.st125{fill:#231A0F;}
	.st126{fill:#211506;}
	.st127{fill:#F19001;}
	.st128{fill:#F79200;}
	.st129{fill:#F89300;}
	.st130{fill:#738BD7;}
	.st131{enable-background:new    ;}
	.st132{clip-path:url(#SVGID_19_);}
	.st133{clip-path:url(#SVGID_21_);}
	.st134{clip-path:url(#SVGID_25_);}
	.st135{fill:#3FA9F5;}
	.st136{clip-path:url(#SVGID_27_);}
	.st137{clip-path:url(#SVGID_31_);}
	.st138{clip-path:url(#SVGID_33_);}
	.st139{clip-path:url(#SVGID_37_);}
	.st140{clip-path:url(#SVGID_39_);}
	.st141{clip-path:url(#SVGID_43_);}
	.st142{clip-path:url(#SVGID_45_);}
	.st143{clip-path:url(#SVGID_49_);}
	.st144{clip-path:url(#SVGID_51_);}
	.st145{clip-path:url(#SVGID_55_);}
	.st146{clip-path:url(#SVGID_57_);}
	.st147{clip-path:url(#SVGID_61_);}
	.st148{clip-path:url(#SVGID_63_);}
	.st149{clip-path:url(#SVGID_67_);}
	.st150{clip-path:url(#SVGID_69_);}
	.st151{fill:#E3E3E3;}
	.st152{fill:none;stroke:#E3E3E3;stroke-width:0.8531;stroke-miterlimit:10;}
	.st153{fill:none;stroke:#E3E3E3;stroke-miterlimit:10;}
	.st154{fill:none;stroke:#EAEAEA;stroke-width:1.3073;stroke-miterlimit:10;}
	.st155{fill:none;stroke:#1A1A1A;stroke-width:2;stroke-miterlimit:10;}
	.st156{fill:none;stroke:#E3E3E3;stroke-width:0.7876;stroke-miterlimit:10;}
	.st157{fill:#199CFC;}
	.st158{fill:#9400FF;}
	.st159{fill:#FFFFFF;stroke:#000000;stroke-miterlimit:10;}
	.st160{stroke:#FFFFFF;stroke-miterlimit:10;}
	.st161{fill:#CB3E47;}
	.st162{fill:#C73B44;}
	.st163{fill:#A933FF;}
	.st164{opacity:0.84;}
	.st165{fill:#FFFFFF;stroke:#FFFFFF;stroke-width:5;stroke-miterlimit:10;}
	.st166{fill:#EDDDE7;}
	.st167{fill:#F3E2E8;}
	.st168{stroke:#000000;stroke-miterlimit:10;}
	.st169{fill:#F8F8F8;}
</style>
<g>
	<g>
		<g>
			<path class="st158" d="M46.4,41.4c0,2.8-2.2,5-5,5H5c-2.8,0-5-2.2-5-5V5c0-2.8,2.2-5,5-5h36.4c2.8,0,5,2.2,5,5V41.4z"/>
		</g>
		<g>
			<path class="st0" d="M37.2,27.1c-0.5,0-0.9,0-1.4,0c0-0.1,0-0.1,0-0.2c0-0.9,0-1.9,0-2.8c0-0.5-0.1-0.9-0.5-1.2
				c-0.7-0.6-1.9-0.2-2.1,0.7c0,0.1,0,0.3,0,0.4c0,0.9,0,1.8,0,2.8c0,0.1,0,0.1,0,0.2c-0.5,0-0.9,0-1.4,0c0-0.1,0-0.1,0-0.2
				c0-0.9,0-1.9,0-2.8c0-0.5-0.2-0.9-0.6-1.2c-0.8-0.6-2,0-2.1,1c0,0.1,0,0.2,0,0.3c0,0.9,0,1.8,0,2.7c0,0.1,0,0.1,0,0.2
				c-0.5,0-0.9,0-1.4,0c0-1.9,0-3.7,0-5.6c0.4,0,0.8,0,1.2,0c0,0.2,0,0.4,0.1,0.7c0.6-0.6,1.2-0.8,2-0.8c0.8,0,1.4,0.4,1.8,1
				c0,0,0-0.1,0-0.1c0.5-0.6,1.1-0.9,1.8-1c0.8,0,1.5,0.2,2,0.8c0.4,0.5,0.6,1,0.6,1.6C37.3,24.9,37.2,25.9,37.2,27.1
				C37.2,27,37.2,27,37.2,27.1z"/>
			<path class="st0" d="M11.6,19.2c0.1,0,0.2,0,0.3,0c0.3,0,0.6,0,1,0c0.1,0,0.1,0,0.1,0.1c0,0.8,0,1.6,0,2.4c0,0,0,0.1,0,0.2
				c0.1,0,0.1,0,0.1-0.1c1.4-1.1,3.5-0.5,4,1.3c0.1,0.3,0.1,0.6,0.1,0.9c0,1,0,2,0,2.9c0,0,0,0.1,0,0.1c-0.5,0-0.9,0-1.4,0
				c0,0,0-0.1,0-0.1c0-1,0-1.9,0-2.9c0-0.9-0.8-1.5-1.7-1.4c-0.6,0.1-1.1,0.6-1.1,1.3c0,0.4,0,0.8,0,1.3c0,0.6,0,1.1,0,1.7
				c0,0,0,0.1,0,0.2c-0.5,0-0.9,0-1.4,0C11.6,24.4,11.6,21.8,11.6,19.2z"/>
			<path class="st0" d="M21.9,26.4c0,0-0.1,0.1-0.1,0.1C20.9,27.2,20,27.4,19,27c-1.2-0.5-1.3-1.8-0.8-2.5c0.3-0.4,0.6-0.6,1.1-0.8
				c0.7-0.2,1.3-0.2,2-0.1c0.2,0,0.4,0,0.5,0.1c0-0.5-0.4-1-0.9-1.1c-0.7-0.2-1.4,0-2,0.4c0,0-0.1,0.1-0.1,0.1
				c-0.2-0.2-0.4-0.5-0.6-0.7c0,0,0-0.1,0-0.1c0.3-0.3,0.6-0.5,1-0.6c0.7-0.2,1.4-0.3,2.1-0.1c1,0.3,1.5,0.9,1.7,1.8
				c0,0.2,0.1,0.4,0.1,0.6c0,1,0,2,0,3c0,0,0,0.1,0,0.1c-0.4,0-0.8,0-1.3,0C21.9,26.8,21.9,26.6,21.9,26.4
				C21.9,26.4,21.9,26.4,21.9,26.4z M20.6,24.3c-0.2,0-0.4,0-0.6,0.1c-0.1,0-0.2,0.1-0.3,0.1c-0.5,0.2-0.8,0.8-0.5,1.2
				c0.2,0.3,0.5,0.5,0.8,0.5c0.9,0,1.6-0.7,1.7-1.6c0,0,0-0.1-0.1-0.1C21.3,24.4,21,24.4,20.6,24.3z"/>
			<path class="st0" d="M25.2,27.1c-0.5,0-0.9,0-1.4,0c0-1.9,0-3.7,0-5.6c0.2,0,0.3,0,0.4,0c0.2,0,0.4,0,0.7,0c0.1,0,0.1,0,0.1,0.1
				c0,0.2,0,0.4,0,0.6c0.6-0.5,1.2-0.7,1.9-0.7c0,0.4,0,0.8,0,1.2c-0.2,0-0.4,0-0.6,0.1c-0.6,0.1-1.1,0.5-1.2,1.1c0,0.1,0,0.3,0,0.4
				c0,0.9,0,1.7,0,2.6C25.2,26.9,25.2,27,25.2,27.1z"/>
			<path class="st0" d="M37.9,21.5c0.4,0,0.8,0,1.2,0c0,0.2,0,0.5,0.1,0.7c0.6-0.5,1.2-0.7,1.9-0.7c0,0.4,0,0.8,0,1.2
				c-0.2,0-0.4,0-0.6,0.1c-0.8,0.2-1.3,0.7-1.3,1.5c0,0.9,0,1.7,0,2.6c0,0.1,0,0.1,0,0.2c-0.5,0-0.9,0-1.4,0
				C37.9,25.2,37.9,23.3,37.9,21.5z"/>
			<g>
				<path class="st0" d="M5.2,19.2c1,0,2-0.1,2.9,0c1.3,0.1,2.5,1.3,2.7,2.6c0.3,1.8-0.8,3.3-2.6,3.7c-0.5,0.1-1,0-1.5,0.1
					c-0.3,0-0.3,0-0.3,0.3c0,0.4,0,0.8,0,1.3c-0.4,0-0.9,0-1.3,0C5.2,24.4,5.2,21.8,5.2,19.2z M6.5,20.5c0,0.1,0,0.1,0,0.2
					c0,1.1,0,2.2,0,3.3c0,0,0,0.1,0,0.1c0,0,0.1,0.1,0.1,0.1c0.5,0,0.9,0,1.4,0c0.9-0.1,1.6-0.9,1.6-1.8c0-0.9-0.6-1.7-1.5-1.8
					C7.6,20.5,7,20.5,6.5,20.5z"/>
			</g>
		</g>
	</g>
	<rect class="st56" width="209.3" height="46.4"/>
</g>
</svg>
