<?xml version="1.0" encoding="utf-8"?>
<!-- Generator: Adobe Illustrator 24.3.0, SVG Export Plug-In . SVG Version: 6.00 Build 0)  -->
<svg version="1.1" id="Layer_1" xmlns="http://www.w3.org/2000/svg" xmlns:xlink="http://www.w3.org/1999/xlink" x="0px" y="0px"
	 width="74.6px" height="74px" viewBox="0 0 74.6 74" style="enable-background:new 0 0 74.6 74;" xml:space="preserve">
<path d="M71.6,9.8c-3.3-8.7-12.3-10.6-19.3-5c-8.6,6.9-14.5,17.5-18,27.9c-1.6-9-6-18.4-13.5-23.8c-7.2-5.2-17.4-3.4-19,6.2
	c-1.7,10,5.4,22.6,10.6,30.7c6,9.2,13.7,17.1,22.8,23.2c1.1,0.7,2-1,1-1.7c-13.6-9.7-24.4-23-30.1-38.8c-1.6-4.4-3.4-9.4-2.2-14.2
	C6.2,5.9,15.5,6.6,21,11.2c7.2,6,11.2,15.4,12.4,24.5c0.1,0.9,1.5,0.9,1.4,0c0-0.2-0.1-0.4-0.1-0.6c0.2-0.1,0.3-0.2,0.3-0.4
	c2.9-9.5,8-18.1,14.8-25.3C54.4,4.6,61,0.2,66.8,6c4.6,4.5,4.2,11.3,2.6,17c-5.1,18.5-19.2,33.6-31.8,47.6c-0.9,1,0.6,2.6,1.5,1.6
	c8.6-9.4,17.1-18.9,23.7-29.8C68.3,33.6,75.6,20.4,71.6,9.8z"/>
</svg>
