<svg width="45" height="45" viewBox="0 0 45 45" fill="none" xmlns="http://www.w3.org/2000/svg"><path fill-rule="evenodd" clip-rule="evenodd" d="M0.489643 22.1885C0.745989 23.2644 1.90466 23.7974 2.96526 23.4837C7.13241 22.2511 12.3448 21.5186 18.0004 21.5186C23.6557 21.5186 28.8678 22.251 33.0349 23.4834C34.0954 23.7971 35.2541 23.2641 35.5104 22.1882C35.8305 20.8446 36 19.4426 36 18.001C36 8.05985 27.9411 0.000976562 18 0.000976562C8.05887 0.000976562 0 8.05985 0 18.001C0 19.4427 0.169494 20.8448 0.489643 22.1885Z" fill="#F1DEFA"></path><path d="M26.6477 39.8268C25.879 41.9801 28.5487 43.9319 30.3247 42.2174L42.0561 30.8923C43.2592 29.7308 42.8115 27.7267 41.2689 27.1542L37.8566 25.8879L40.3355 18.9437C41.1007 16.8 38.4585 14.8519 36.6757 16.5366L24.7023 27.852C23.479 29.0081 23.9205 31.0306 25.4723 31.6065L29.1013 32.9532L26.6477 39.8268ZM37.1709 25.6334C37.1712 25.6335 37.1715 25.6336 37.1718 25.6338L37.1709 25.6334Z" fill="#F67300" stroke="white" stroke-width="3"></path><rect x="12.499" y="27.9209" width="11" height="4" rx="2" fill="#F1DEFA"></rect><path d="M15.1542 22.1241C15.9825 23.5587 17.8172 24.0502 19.2521 23.2218C20.687 22.3933 21.1787 20.5587 20.3504 19.1241C19.5221 17.6894 17.6874 17.1979 16.2525 18.0264C14.8176 18.8548 14.3259 20.6894 15.1542 22.1241Z" fill="#663399"></path><path d="M31.201 12.1392C31.47 12.0347 31.7749 12.142 31.9192 12.3919C32.0628 12.6407 32.0045 12.9569 31.7817 13.1381L19.6851 22.9729L16.6851 17.7768L31.201 12.1392Z" fill="#663399"></path></svg>
