<?xml version="1.0" encoding="utf-8"?>
<!-- Generator: Adobe Illustrator 24.3.0, SVG Export Plug-In . SVG Version: 6.00 Build 0)  -->
<svg version="1.1" id="Layer_1" xmlns="http://www.w3.org/2000/svg" xmlns:xlink="http://www.w3.org/1999/xlink" x="0px" y="0px"
	 width="75px" height="75px" viewBox="0 0 75 75" style="enable-background:new 0 0 75 75;" xml:space="preserve">
<style type="text/css">
	.st0{fill:#9325FB;}
	.st1{fill:#FFFFFF;}
	.st2{fill:#D4A8FD;}
</style>
<g>
	<circle class="st0" cx="37.5" cy="37.5" r="37.5"/>
</g>
<g>
	<path class="st1" d="M37.5,35c0.6,0,1.3-0.2,1.8-0.4c0.6-0.2,1-0.6,1.4-1c0.4-0.4,0.5-1.1,0.5-1.8c0-1.1-0.4-2-1.1-2.6
		c-0.8-0.6-1.6-0.9-2.6-0.9c-1.4,0-2.4,0.4-3.1,1.3c-0.7,0.9-1,2-1,3.4h-5.1c0-1.3,0.3-2.6,0.7-3.7c0.4-1.1,1.1-2.1,1.8-2.9
		c0.8-0.8,1.7-1.4,2.8-1.9c1.1-0.4,2.3-0.7,3.7-0.7c1.1,0,2.1,0.2,3.2,0.5c1.1,0.3,2,0.8,2.8,1.4c0.8,0.6,1.5,1.4,2,2.3
		c0.5,0.9,0.8,1.9,0.8,3.1c0,1.3-0.3,2.4-0.9,3.4c-0.6,1-1.5,1.6-2.8,2v0.1c1.4,0.3,2.6,1,3.4,2.1c0.8,1.1,1.2,2.4,1.2,3.9
		c0,1.4-0.3,2.6-0.8,3.7c-0.5,1.1-1.3,2-2.2,2.7c-0.9,0.7-1.9,1.3-3.1,1.7c-1.2,0.4-2.4,0.6-3.7,0.6c-1.5,0-2.8-0.2-4-0.6
		c-1.2-0.4-2.2-1-3.1-1.9c-0.9-0.8-1.5-1.8-2-3c-0.5-1.2-0.7-2.5-0.7-4.1h5.1c0,0.7,0.1,1.4,0.3,2c0.2,0.6,0.5,1.2,0.9,1.7
		c0.4,0.5,0.8,0.8,1.4,1.1c0.6,0.3,1.2,0.4,2,0.4c1.2,0,2.2-0.4,3-1.1c0.8-0.7,1.2-1.7,1.2-3c0-1-0.2-1.8-0.6-2.3
		c-0.4-0.5-0.9-0.9-1.5-1.1c-0.6-0.2-1.3-0.4-2-0.4c-0.7,0-1.4-0.1-2-0.1V35C36.2,35.1,36.8,35.1,37.5,35z"/>
</g>
</svg>
