<?xml version="1.0" encoding="utf-8"?>
<!-- Generator: Adobe Illustrator 24.3.0, SVG Export Plug-In . SVG Version: 6.00 Build 0)  -->
<svg version="1.1" id="Layer_1" xmlns="http://www.w3.org/2000/svg" xmlns:xlink="http://www.w3.org/1999/xlink" x="0px" y="0px"
	 viewBox="0 0 387 383" style="enable-background:new 0 0 387 383;" xml:space="preserve">
<style type="text/css">
	.st0{fill:#271547;}
	.st1{fill:#03066A;}
	.st2{fill:#DC150A;}
	.st3{fill:#FDFDFD;}
	.st4{fill:#F6E4CF;}
	.st5{fill:#03C5FB;}
	.st6{fill:#FEFEFE;}
	.st7{fill:#03A4E6;}
	.st8{fill:#F99902;}
	.st9{fill:#0656A2;}
	.st10{fill:#1461A8;}
	.st11{fill:#FEDE02;}
</style>
<g id="orPuX7_1_">
	<g>
		<path class="st0" d="M153,259.3c-7.8,0.3-7.9-0.3-6.7-8.1c1-6.4,1.1-12.9,1.7-19.3c0.3-2.6-1.3-2.5-3.1-2.5
			c-4.5,0.2-9-0.2-13.3-1.6c-10.7-3.5-15-13.8-9.4-23.4c1.6-2.7,1.7-5.1,1.4-8c-1.5-14.6-1.1-29.3-0.1-43.9c0.5-8,1.4-15.9,1.7-23.8
			c0.2-5.8-1.7-7.5-7.5-7c-5.8,0.5-11.5,1.6-17.3,2.3c-5.6,0.7-11.3,1.2-16.9-0.3c-1.1-0.3-2.4-1-3.2,0.4c-4.3,7.9-11.2,9-19.3,7.2
			c0.9,3.8,2,7.3,2.6,10.9c0.6,3.6-0.3,6.6-4.1,8.4c-3.5,1.7-5.6,0.1-8-1.8c-4-3.1-6.5-7.5-9.1-11.7c-2.7-4.4-6.3-6.6-11.3-6.9
			c-3.7-0.2-7.3-0.4-10.9-0.9c-10.1-1.4-14.8-7.4-14.5-18C6,100,11.3,94,21.5,93.3c7.5-0.5,15,0.1,22.3,2.1c2.2,0.6,3.6,0.9,4.9-2
			c3.7-8.2,8.1-9.8,17.4-9.6c3.4,0.1,6.8-2.7,10.2-4.2c14.8-6.2,30.2-9.5,46.2-10.6c7.8-0.5,15.4-0.3,23,0.7
			c2.2,0.3,4.3,1.4,7.1,2.4c-1.7-3.7-3.3-6.8-4.6-10.1c-1.1-2.8-2.1-5.6-2.2-8.7c-0.1-1.5,0.1-3.2,1.6-3.9c1.6-0.8,3.3-0.4,4.6,0.9
			c1.2,1.3,2.3,2.7,3.7,4.2c0.7-1.6,0.4-2.5,0.2-3.5c-1.8-7.1-0.1-10.4,6.9-12.2c2.4-0.6,3.5-1.4,3.6-4.1
			c0.5-10.2,6.1-16.6,15.7-19.5c21-6.3,42.3-10.8,64.4-8.8c7.5,0.7,14.9,1.8,21.8,4.9c5.8,2.6,10.5,6.4,13.2,12.3
			c0.9,1.9,2.1,3.2,4.3,3.6c6.5,1.1,10.3,5.1,11,11.5c0.6,5.6-2.7,11.2-8,13.7c-5.4,2.5-11.6,1.3-15.6-3c-3.1-3.4-4.7-7.4-3.5-11.9
			c0.6-2.3,1.2-4.1-1.5-5.4c-2.5-1.3-4.9-2-7.4-0.1c-1.6,1.2-2.9,2.8-3.6,4.7c-2.2,5.9-6.6,10.7-8.7,16.7c-1.5,4.2-6.5,6.8-11.1,5.4
			c-3.9-1.1-4.5,0.5-4.9,3.5c-0.3,2.1-0.9,4.1-1.4,6.5c15.7-2.9,29.5,2.2,43.4,8.8c7.9,3.7,16,7.2,24.1,10.5
			c1.3,0.5,2.2,0.7,3.6-0.1c6.3-3.5,10.4-2.5,14.1,3.8c1.6,2.8,3.1,3.2,6.2,2.6c10.1-2,19.1,1.3,27.3,6.9c4.9,3.4,5.9,7.8,3.8,13.1
			c-2.8,7.1-9.4,11.4-15.8,10.6c-3.5-0.4-6.7-1.9-10-3.2c-1.3,1.6-0.1,3,0.5,4.1c3.6,6.5-3.5,14.4-10.6,13.5c-4.4-0.6-5.5-4-7-6.8
			c-2-3.6-3.2-6.1-8.2-3.2c-4.7,2.7-10.4,1.7-15.5-0.2c-2.1-0.8-4.4-2.3-4.3-4.4c0.2-4.4-2.7-4.4-5.5-5c-2.1-0.5-4.2-0.8-6.1-2.1
			c-1.9-1.2-3.7-1.2-4.5,1.3c-1.3,4.1-4.1,3.4-6.7,2c-2.9-1.6-5.5-3.7-8.3-5.5c-1.5-1-2.7-2.6-5.1-1.9c4.7,4.7,9.4,9.3,14,14
			c1.3,1.3,2.7,1.6,4.4,1.8c12.3,1.4,16.9,7.5,14.8,19.8c-0.4,2.6-0.9,5.4-2.1,7.7c-2.2,4.2-0.6,5.4,3.4,6.7
			c7.6,2.4,15.1,5.3,19.8,12.5c-0.2,0.2-0.3,0.3-0.4,0.5c-7.9-7.5-17.5-11.7-28-14c2.5-6.2,5.2-12.3,5-19.1
			c-0.3-7.1-4.9-10.7-11.8-9.2c3.4,5.9,1.9,11.5-1.3,16.9c-3.5,5.8-8.1,10.6-13.4,14.7c-28.5,21.8-59.2,39.2-94.4,47.3
			c-11,2.5-23.2,5.8-31-7.5c-4.6,9.1-1.7,16.4,7.2,19.5c4.5,1.5,9.1,1.6,13.8,1.5c8.7-0.3,17.1-2.6,25.5-4.7
			c0.1,2.1-1.3,2.3-2.9,2.6c-5,0.9-10,2.3-15.1,2.8c-3.3,0.3-3.7,1.8-3.7,4.4c0.1,5.3-0.1,10.6,0.1,15.9c0.1,2.6-2,4.4-2.2,7
			C147.7,258.7,153,256,153,259.3z M229.7,62.5c0.9-4.7-0.1-8.5-5.4-10.6c0.9,3.4,4.8,5.9,2.3,9.7c-3.2-0.5-5.6,1.7-8.3,2.8
			c-3.5,1.4-7.3,2.5-10.1-0.5c-2.6-2.7-4.7-2.3-7.2-0.5c-2.1-3.9-5.3-6.9-8.8-9.4c-0.8-0.5-3-1.8-1.6,1.2c-0.3,0.4-0.7,0.8-1,1.3
			c-5.8-3-12-4.8-18.6-5.2c-3.3-0.2-4.7,1.4-3.5,4.6c1.4,3.7,3,7.3,6.3,9.8c1.5,1.2,3.1,2,5,1c3-1.6,5.7-0.8,8.5,0.6
			c4.3,2.1,5,1.5,4.9-3.4c0-1.1-0.6-2.5,0.4-3.3c1.3-1,2,0.6,2.9,1.2c1.7,1.1,3.4,2,5.6,1.7c0,1.1,0,2.2,0,3.3
			c-2.8-1.1-5.6-2.6-6.5,2.1c-0.2,1.2-1.6,2.4-2.5,2.2c-6.3-2-13.1-0.4-19.4-2.4c-0.1,0-0.3-0.2-0.4-0.3c-2.5-3.3-5.9-4.8-9.9-5.6
			c-2.9-0.6-5.3-2.5-7.3-4.8c-1.7-2-3.2-4-4.8-6.1c-0.7,16.9,12.5,27.9,27.1,28.1c5.3,0.1,9.4,1,14.2,3c12.6,5.3,29.5-2,35.6-14.5
			c0.5-1.1,1.2-2.1-0.8-2.4C227.6,64.9,230.7,65.8,229.7,62.5z M260,97.5c1.9-0.6,4.8,0.5,5.4-2.3c0.4-2.2-1.5-3.6-3.2-5
			c-9.9-8.5-21.6-11.7-34.3-12.7c-2.7-0.2-4.6,0.5-6.7,2.3c-10.1,8.7-24.1,9.9-35.7,3.3c-1.1-0.6-2-0.9-3.3-0.6
			c-6.5,1.7-12.4-0.7-18.4-2.8c-2.9-1-5.1-5.9-8.2-3.2c-2.2,1.9-2.6,6-3.5,9.1c-0.7,2.4-1,4.9-1.1,7.4c-0.5,19,12.5,29,30.7,23.6
			c8.5-2.5,16.4-6.5,24.5-10c15.2-6.5,29.7-6.4,43.4,3.9c4.1,3.1,8,6.5,12.8,8.5c1-2.1,0.2-3.6-0.5-5.3c-3-6.6-7.2-12.3-12.7-17
			c-1.7-1.4-1.7-1.4-2.5-4.4c4.6,0.4,9.1,0.6,11.7,5.2c-0.3,1.2-1.3,2.3-0.3,3.7c4.6,6.2,7.9,13.2,17.1,15.1
			c11.3,2.3,16.4,0.1,19.3-11.4c0.8-3.2,1.4-6.5,2.4-9.7c0.9-2.9-0.3-4.4-2.8-5.4c-11.4-4.9-22.8-10-34.3-14.6
			c-7.3-2.9-15-4.6-22.9-3.7c-1.4,0.1-3.5,0.2-3.3,2.1c0.1,1.4,1.9,1.5,3.2,1.7c0.8,0.1,1.7,0,2.5,0.2c11.1,2.5,21.1,6.9,28.1,16.4
			c1.8,2.4,2.7,5,0.1,7.1C264.8,101.3,262.1,100.2,260,97.5z M126.1,173.2c0.2,8.6-0.5,17.3,1,25.9c1.5,8.2,5.6,12.2,13.9,12.3
			c12.8,0.1,25-3.4,36.7-7.9c17.1-6.5,33.5-14.7,48.7-25c11.8-8,24.2-15.3,33-27c6.3-8.4,5.8-14.5-1.8-21.9
			c-6-5.9-12.6-11.5-17.3-18.6c-2.8-4.2-6.9-5.5-11.6-5.7c-8.9-0.3-17.1,2.3-25,5.8c-8.4,3.7-16.6,7.7-25.6,9.7
			c-10.1,2.3-20.1-1.2-25.7-9.9c-6.2-9.5-6.1-19.8-2.3-30.1c1.5-4.1,0.7-6.4-3.5-7.4c-1.6-0.4-3.2-0.8-4.8-1.1
			c-13.7-2.3-27.1,0.3-40.5,2.8c-9.2,1.7-18,4.8-26.5,8.5c-2.1,0.9-5.1,1.9-2.6,5.4c5.7,7.9,8.8,16.8,9.5,26.4
			c0.4,5,2.8,6.1,7.1,5.9c2.5-0.1,5,0.2,7.5-0.1c5.9-0.7,11.8-1.5,17.8-2.4c10.2-1.5,14.8,0.7,14.4,11.5
			C127.8,144.6,125,158.8,126.1,173.2z M27.2,96.3c-13.2,0-16.7,2.5-18,13.9c-1.2,10,3.2,16.1,13.6,16.1c10.6,0,19.8,2.2,24.9,12.8
			c1.1,2.2,2.9,4.1,4.5,5.9c1.8,2,3.7,4.3,6.7,2.8c2.8-1.5,2-4.2,1.5-6.7c-1.4-6.8-3.5-13.3-3.7-20.5c-0.2-8.2-6.6-13.9-10.4-20.6
			c-1.9-3.3-7.3-2.3-11.1-3.2C32.6,96.2,29.8,96.5,27.2,96.3z M197.8,16c-4.5,0.1-9,0.3-13.3,1.6c-7.9,2.3-13.9,6.4-15,15.3
			c-0.2,1.6-1.1,3.7,0.2,4.8c1.5,1.2,3.2-0.5,4.4-1.3c15.8-10.8,39.3-4.1,50.4,9.8c2.3,2.9,4.6,5.7,7.7,7.8
			c3.5,2.4,7.3,3.5,11.2,0.9c3.8-2.6,3.7-6.4,2.7-10.3c-2-8.2-7.4-14.7-14-18.6C221.8,19.8,210.4,15.2,197.8,16z M278,24.4
			c-0.4-0.7-0.9-1.9-1.7-3c-2.8-3.7-6.6-6.1-10.9-7.6c-16.8-5.7-33.9-5.6-51.1-2.7c-1.4,0.2-3.7-0.1-3.8,1.6c0,2.1,2.3,2.2,4.1,2.7
			c13.4,3.1,24.5,9.6,31.9,21.7c1,1.6,1.1,4.7,3.2,4.6c2.3,0,2.6-3.1,3.5-4.9c4.9-9.1,6.9-10,17.3-6.9
			C273.1,30.6,278.1,27.3,278,24.4z M339.1,122.2c4.9-0.1,10.2-4.8,11.6-9.5c1.4-4.7-0.9-7.7-4.5-10c-5.4-3.5-11.4-5.4-17.8-5.9
			c-6.8-0.5-8.4,1.3-9.3,8.2c-0.8,6.1-2.5,12.1-6.8,16.8c-2,2.2-2,4.3-0.9,6.8c3,6.9,5.9,9.3,9.5,8c4.8-1.7,5.7-5.2,3-13
			c-0.6-1.7-0.9-3.3,0.5-4.6c1.3-1.2,2.8-0.6,4.2,0C332.2,120.6,335.8,121.6,339.1,122.2z M78.5,115.9c-0.9-9.1-3.9-18.4-10.2-26.3
			c-3.4-4.3-7.9-4.6-12.2-1.1c-6.4,5.3-7.3,10.5-2.6,17.3c3.3,4.8,6.3,9.6,6.8,15.8c0.5,7.1,4,9,10.9,6.8
			C76.5,126.6,78.7,123.2,78.5,115.9z M316.2,102.8c0-0.8,0.1-1.7,0-2.5c-0.4-5.5-4.3-10.9-8.2-11.4c-3.4-0.5-7,3.5-8.6,9.6
			c-0.1,0.3-0.2,0.7-0.2,1c-1,9-3.8,16.8-12.3,21.6c-2.9,1.7-1.9,3.9,0.8,5.2c3.2,1.5,6.6,1.8,10.2,1.6
			C306,127.2,316.3,116,316.2,102.8z M283.1,29.3c-6,0-10.8,4.7-10.8,10.7c0,5.9,4.8,10.7,10.7,10.7c6,0,10.8-4.8,10.8-10.7
			C293.8,34.2,289,29.4,283.1,29.3z M220.6,49.4c-5.1-14.1-33.1-18.1-41.1-10.9C193.9,39.4,207.2,42.1,220.6,49.4z"/>
		<path class="st1" d="M306.5,232.3c6.1-2.3,11.3-6.2,16.9-9.4c11.6-6.4,23.7-11.5,37.1-11.9c13-0.5,19.3,8.8,14.2,20.7
			c-4.6,10.7-12.8,18.9-21.2,26.7c-5.5,0-6.4,0.8-5.4,5.3c-0.1,0.3-0.3,0.4-0.6,0.4c-3.5-0.8-5.4,0.5-5.3,4.3c0,0,0.1-0.1,0.1-0.1
			c-0.3,0.4-0.5,0.8-0.8,1.2l-0.3-0.3c0,0,0.3,0.3,0.3,0.3c-0.7,0-1,0.3-1.1,1l-0.2-0.3c0,0,0.3,0.3,0.3,0.3c-2-0.4-3.5,0.8-4.9,1.9
			c-9.5,7.8-19.3,15-29.3,22.3c-9.7,7.1-19.7,13.7-29.7,20.3c-1.4,0.9-3,1.6-3,3.6l-0.2-0.4c0,0,0.2,0.4,0.2,0.4
			c-3.5-0.8-6.3-0.2-7,4c-0.1-0.1-0.2-0.2-0.3-0.2c0.1,0.1,0.2,0.1,0.3,0.2c-2-0.8-3.5,0.2-5.2,1.1c-5.9,3.2-11.6,7.3-17.9,9.3
			c-8.4,2.7-15.2,8.3-23.4,11.3c-11.5,4.2-23,8.2-34.2,13.1c-6.4,2.8-13.1,4.1-19.6,6.2c-8.3,2.6-16.6,5.2-25.2,6.8
			c-8.5,1.6-17,2.1-25.6,3.3c-12.2,1.7-24.5,2-36.4-0.8c-3.9-0.9-9.6-2.3-10.7-8.2c9.3,4.6,19.2,4,28.9,3.2c27.4-2,53.8-9,79.7-17.9
			c50-17.2,96-42.1,138.7-73.1c16.7-12.2,32.8-25.1,46.8-40.5c3.3-3.6,6.3-7.4,8.1-11.9c2.4-6.1,0.1-9.9-6.3-10.4
			c-3.8-0.3-7.6,0-11.4,0.7c-12.5,2.3-23.4,8.2-34.5,14.1c-2.7,1.4-3.7,4.1-3.7,7.1c0,3,2.8,2.2,4.5,2.9c5.2,2.2,7.3,6.9,5.7,12.7
			c-1.6,5.8-6.2,8-11.5,9c-3.9,0.7-7.9,1-11.9,1.5c-2.4,0.3-4.5,1-5.6,3.5c-2.3,5.1-6.8,5.6-11.4,4.9c-4.8-0.8-6.7-4.9-7.1-9
			c-0.4-4.3-1.7-3.9-4.5-2c-11.4,7.5-22.7,15.1-34.4,22.2c-16,9.8-32,19.7-49.2,27.6c0.2-1.2,0.5-2.4,0.7-3.6
			c31.5-15.7,61.2-34.1,89.3-55.3c2,1.9-0.1,4.8,1.5,6.8c-0.1,0.7-0.2,1.4-0.3,2.2c-1.7,1.9-2.4,3.7,0.7,5c3.6,4.7,9.6,5.1,11.7,0.4
			c1.7-3.9,4.5-4.9,8.1-5.5c5.2-0.9,10.7-0.7,15.7-2.6c4.2-1.6,6.6-6.2,5.5-10.5c-1.1-4.5-4.5-5.3-8.6-4.9c-1.2,0.1-2.3,0.2-3.5,0.2
			c-1-1.5-1.6-1-2,0.4c-1,0-2,0.1-3,0.1c-0.4-2.8-0.8-5.5-1.1-8.3c0-0.5,0.1-0.9,0.1-1.4C304.8,232.3,305.7,232.3,306.5,232.3z"/>
		<path class="st1" d="M153,259.3c0-3.3-5.4-0.5-5.1-4.8c0.2-2.6,2.2-4.4,2.2-7c-0.2-5.3,0-10.6-0.1-15.9c-0.1-2.7,0.4-4.1,3.7-4.4
			c5.1-0.5,10-1.8,15.1-2.8c1.6-0.3,3-0.5,2.9-2.6c0,0,0.1,0,0.1,0c0.8,0.2,1.6,0.6,2.4,0.5c9.3-1.1,17.5-5.5,26.2-8.6
			c1.3-0.5,1.8-1.4,1.1-2.8l0.3-0.1c0.6,0.3,1,0.1,1.3-0.5c0,0,0.3-0.1,0.3-0.1c1.5,0.3,2.9,0,4.3-0.6c5-2,5.4-1.7,5.4,3.9
			c0,6.4-1.7,12.7-0.9,19.1c-0.1,0.6-0.1,1.2-0.2,1.8c-2.1,1-1.4,3.1-2,4.7c-2,6.2-2.4,13.4-11.1,15c-2.3,0.4-5.5,0.9-6.2,4.2
			c-0.3-0.2-0.7-0.4-1-0.6c-7.3-1.3-14.4,0.7-21.6,1.3c-2.2,0.2-5-0.8-7,1.4c-0.6,0.1-1.1,0.2-1.7,0.3c-1.1-0.1-2.3-0.2-3.4-0.3
			c-0.4-0.1-0.7-0.2-1.1-0.3c-0.7-0.8-0.6-2.3-2.1-2.2c-0.3,0-0.5,1-0.8,1.5C153.8,259.3,153.4,259.3,153,259.3z"/>
		<path class="st0" d="M68.3,364.7c1.1,5.9,6.8,7.3,10.7,8.2c11.9,2.8,24.2,2.5,36.4,0.8c8.5-1.2,17.1-1.7,25.6-3.3
			c8.6-1.6,17-4.2,25.2-6.8c6.5-2,13.2-3.4,19.6-6.2c11.2-4.9,22.7-9,34.2-13.1c8.2-3,15-8.6,23.4-11.3c6.3-2,12-6.1,17.9-9.3
			c1.6-0.9,3.2-1.9,5.2-1.1c-24,14.1-49.3,25.4-75.3,35.1c-28.7,10.6-58.1,18.1-88.9,18.7c-8.3,0.1-16.7,0.2-24.8-2.1
			c-1.9-0.5-3.8-1.2-5.6-2.1c-10.6-5.7-11.5-14.7-2-22c8.3-6.4,18.2-9.5,27.9-12.9c4.5-1.6,9.2-2.7,13.8-4.1c0,0-0.2-0.1-0.2-0.1
			c0.9-0.2,1.8-0.5,2.8-0.7c0.7,0.9,0.4,1.7-0.1,2.5c-8.6,2.9-17.3,5.6-25.8,8.8c-7.1,2.7-14.2,5.7-19.6,11.4
			C65.8,358.2,65,361.4,68.3,364.7z"/>
		<path class="st0" d="M158.1,260.3c1.1,0.1,2.3,0.2,3.4,0.3c-0.7,23.3-6.8,44.4-24.3,61c-2.8,2.7-4.6,6.2-4.1,10.5
			c-2.2-1.3-4.2-4.9-7.1-0.8c-1,0.9-2.1,1.4-3.5,1c-0.5,0.2-1,0.4-1.5,0.6c-0.6,0.1-1.3,0.3-1.9,0.4c-0.7-0.6-1.4-1.2-2.1-1.8
			c3.8-1.2,7.7-2.5,11.6-3.4c1.4-0.3,1.9-1.1,2.3-2.2c1.9-4.6,5.5-7.8,8.7-11.4C153.6,299.2,158.3,280.6,158.1,260.3z"/>
		<path class="st0" d="M306.5,232.3c-0.8,0-1.7-0.1-2.5-0.1c1.4-11.3,2.1-22.7,7.2-33.1c1.9-3.8,0.9-6.8-2.3-9.1
			c-2.8-2-5.8-3.7-8.8-5.6c0-2.7,0-5.4,0-8.1c0.1-0.2,0.3-0.3,0.4-0.5c0.6,0.8,1.8,1.7,1.6,2.4c-1.2,5.3,3.3,6,6.2,7.8
			c7.3,4.7,8.4,8.4,4.6,16.1c-2.1,4.4-2.8,9.1-3.7,13.9C308.3,221.4,307.4,226.9,306.5,232.3z"/>
		<path class="st0" d="M273.4,318.7c0-2,1.6-2.7,3-3.6c10-6.7,20-13.3,29.7-20.3c9.9-7.2,19.8-14.5,29.3-22.3
			c1.4-1.2,2.9-2.3,4.9-1.9C319.8,289.1,297.5,305.1,273.4,318.7z"/>
		<path class="st0" d="M266.4,322.7c0.7-4.2,3.5-4.8,7-4C271.3,320.4,269,321.7,266.4,322.7z"/>
		<path class="st0" d="M348,263.7c-0.9-4.4,0-5.3,5.4-5.3C351.6,260.2,349.8,262,348,263.7z"/>
		<path class="st0" d="M342.1,268.4c-0.1-3.8,1.8-5,5.3-4.3C345.9,265.9,344.7,267.9,342.1,268.4z"/>
		<path class="st1" d="M117.2,331.6c0.7,0.6,1.4,1.2,2.1,1.8c-1.6,1-3.3,1.6-5.2,1.6c0.6-0.8,0.9-1.6,0.1-2.5
			C115.2,332.2,116.2,331.9,117.2,331.6z"/>
		<path class="st0" d="M154.2,259.4c0.3-0.5,0.5-1.5,0.8-1.5c1.4-0.1,1.4,1.4,2.1,2.2C156.1,259.8,155.1,259.6,154.2,259.4z"/>
		<path class="st0" d="M341.4,269.6c0.3-0.4,0.5-0.8,0.8-1.2C341.9,268.8,341.7,269.2,341.4,269.6z"/>
		<path class="st0" d="M340.3,270.6c0.1-0.7,0.4-1,1.1-1C341,269.9,340.7,270.3,340.3,270.6z"/>
		<path class="st1" d="M111.5,333.3c0,0,0.2,0,0.2,0.1S111.5,333.3,111.5,333.3z"/>
		<path class="st2" d="M126.1,173.2c-1.1-14.4,1.7-28.5,2.3-42.8c0.4-10.8-4.2-13.1-14.4-11.5c-5.9,0.9-11.8,1.7-17.8,2.4
			c-2.5,0.3-5-0.1-7.5,0.1c-4.2,0.2-6.7-0.9-7.1-5.9c-0.7-9.6-3.9-18.5-9.5-26.4c-2.5-3.5,0.5-4.5,2.6-5.4
			c8.6-3.7,17.4-6.8,26.5-8.5c13.4-2.5,26.8-5.1,40.5-2.8c1.6,0.3,3.2,0.7,4.8,1.1c4.2,1,5,3.3,3.5,7.4c-3.8,10.3-3.9,20.6,2.3,30.1
			c5.6,8.7,15.6,12.2,25.7,9.9c9-2,17.3-6,25.6-9.7c8-3.6,16.2-6.2,25-5.8c4.7,0.2,8.8,1.5,11.6,5.7c4.8,7.1,11.3,12.6,17.3,18.6
			c7.6,7.5,8.1,13.5,1.8,21.9c-8.8,11.7-21.1,19-33,27c-15.2,10.3-31.6,18.5-48.7,25c-11.7,4.5-23.9,8-36.7,7.9
			c-8.3-0.1-12.4-4-13.9-12.3C125.6,190.5,126.3,181.8,126.1,173.2z M208.8,152.6c3.3,0,6.8-3.3,6.8-6.5c0-4-3.2-7.2-7.2-7.3
			c-3.5,0-6.7,3.1-6.7,6.6C201.6,149.7,204.4,152.6,208.8,152.6z M198.5,121.4c-4.2-0.1-6.9,1.5-7.2,5.8c-0.3,3.9,2.3,6.8,6,7
			c3.8,0.2,7.5-2.9,7.1-6.6C204.1,124.2,202.7,121.1,198.5,121.4z M219,170.3c3.4,0,6.9-3.4,6.9-6.4c0-2.9-3.6-6.4-6.6-6.3
			c-3.2,0.1-6.6,3.4-6.3,6.5C213.4,167.7,215.7,169.9,219,170.3z"/>
		<path class="st3" d="M258.4,97.5c-2.6-4.6-7.1-4.8-11.7-5.2c0.9,3,0.9,2.9,2.5,4.4c5.5,4.7,9.8,10.4,12.7,17
			c0.8,1.7,1.5,3.3,0.5,5.3c-4.9-2-8.7-5.5-12.8-8.5c-13.7-10.3-28.2-10.4-43.4-3.9c-8.1,3.5-16,7.4-24.5,10
			c-18.2,5.4-31.3-4.5-30.7-23.6c0.1-2.5,0.4-5,1.1-7.4c0.9-3.2,1.3-7.3,3.5-9.1c3.1-2.7,5.3,2.2,8.2,3.2c6,2.1,11.8,4.5,18.4,2.8
			c1.2-0.3,2.2,0,3.3,0.6c11.7,6.6,25.7,5.4,35.7-3.3c2.1-1.8,4-2.5,6.7-2.3c12.7,0.9,24.4,4.2,34.3,12.7c1.6,1.4,3.6,2.9,3.2,5
			c-0.5,2.8-3.5,1.7-5.4,2.3C259.5,97.5,259,97.5,258.4,97.5z"/>
		<path class="st3" d="M203.4,210.1c0,0-0.3,0.1-0.3,0.1c-0.4,0.2-0.9,0.3-1.3,0.5c0,0-0.3,0.1-0.3,0.1c-9.9,3.6-19.8,7.3-29.7,10.9
			c0,0-0.1,0-0.1,0c-8.4,2.1-16.7,4.4-25.5,4.7c-4.7,0.1-9.3,0-13.8-1.5c-8.9-3-11.8-10.3-7.2-19.5c7.8,13.3,20,10,31,7.5
			c35.2-8.1,66-25.6,94.4-47.3c5.3-4.1,9.9-8.9,13.4-14.7c3.2-5.4,4.8-11,1.3-16.9c6.9-1.5,11.5,2.1,11.8,9.2c0.3,6.8-2.5,13-5,19.1
			c-0.2,0-0.3,0.2-0.2,0.4c-1.2,1.9-2.4,3.7-3.6,5.6c-0.3,0.1-0.5,0.3-0.4,0.6c-0.3,0.4-0.7,0.8-1,1.3l0.2,0.1l-0.2-0.2
			c-0.3,0.4-0.6,0.7-0.9,1.1l0,0c-0.3,0.4-0.6,0.8-1,1.1c-0.3,0.3-0.6,0.6-0.9,1c-0.8,0.8-1.6,1.6-2.4,2.4c0,0-0.2,0.2-0.2,0.2
			c-0.5,0.5-1,0.9-1.4,1.4c0,0,0.1-0.1,0.1-0.1c-0.4,0.4-0.8,0.7-1.2,1.1c-0.3,0.2-0.6,0.5-0.8,0.7c-0.8,0.6-1.5,1.2-2.3,1.8
			l0.2,0.3c0,0-0.2-0.3-0.2-0.3c-0.6,0.5-1.1,0.9-1.7,1.4c0,0,0,0,0,0c-6.7,4.3-13.4,8.6-20.1,13c0,0,0,0,0,0
			C223.8,200.1,213.6,205.1,203.4,210.1z"/>
		<path class="st1" d="M257.9,179c0.3-0.2,0.6-0.5,0.8-0.7c0.4-0.4,0.8-0.7,1.2-1.1c0,0-0.1,0.1-0.1,0.1c0.9,0,1.8-0.1,1.4-1.4
			c0,0,0.2-0.2,0.2-0.2c2.6,1,2.3-0.9,2.4-2.4c0.3-0.3,0.6-0.6,0.9-1c0.3-0.4,0.6-0.8,1-1.1c0,0,0,0,0,0c0.3-0.4,0.6-0.7,0.9-1.1
			c0,0,0.2,0.2,0.2,0.2s-0.2-0.1-0.2-0.1c0.7-0.1,1-0.6,1-1.3c0-0.3,0.1-0.5,0.4-0.6c3.2-0.6,4.1-2.6,3.6-5.6
			c-0.1-0.2,0-0.3,0.2-0.4c10.5,2.3,20,6.6,28,14c0,2.7,0,5.4,0,8.1c-0.2,0.2-0.5,0.2-0.8,0.1c-0.7,0.1-1,0.4-0.9,1.1l-0.3-0.1
			l0.3,0.2c-2.4-0.5-2.3,1.1-2.3,2.7l0,0c-3.9-0.5-5.5,1.1-5,5c-1,0.8-2,1.6-3,2.5c-0.2-0.2-0.3-0.5-0.5-0.7
			c0.2,0.2,0.3,0.5,0.5,0.7c-0.1,0.3-0.3,0.4-0.6,0.4c-3.2-2-4.7,2.3-7.4,2.1c-0.1-0.1-0.2-0.1-0.4-0.2c0.1,0.1,0.3,0.1,0.4,0.2
			c0.7,3.3-2.8,3.2-3.9,5.1l-0.2,0.2l-0.3-0.1c-2.9-0.6-5.4,0.6-8.1,1.7c-2.5,1-5,3.9-7.5,2.8c-7-3.2-14.5-3.7-21.9-4.9
			c-6.1-0.9-6.7-2.6-4.3-8c0,0,0,0,0,0c8.2-0.8,13.6-6.9,19.9-11c0.3-0.2,0.1-1.3,0.1-1.9c0,0,0,0,0,0c1,0,1.8-0.1,1.7-1.4l0.2,0.3
			c0,0-0.2-0.3-0.2-0.3C257.4,181.4,258,180.6,257.9,179z"/>
		<path class="st2" d="M27.2,96.3c2.7,0.1,5.4-0.1,7.9,0.5c3.8,0.9,9.3-0.1,11.1,3.2c3.8,6.7,10.3,12.4,10.4,20.6
			c0.1,7.1,2.2,13.7,3.7,20.5c0.5,2.5,1.3,5.2-1.5,6.7c-3,1.6-5-0.8-6.7-2.8c-1.7-1.8-3.5-3.7-4.5-5.9
			c-5.1-10.6-14.3-12.7-24.9-12.8c-10.4,0-14.8-6.1-13.6-16.1C10.4,98.8,13.9,96.3,27.2,96.3z"/>
		<path class="st3" d="M197.8,16c12.6-0.8,24,3.8,34.3,9.9c6.6,3.9,12,10.4,14,18.6c1,3.9,1,7.8-2.7,10.3c-3.8,2.6-7.7,1.5-11.2-0.9
			c-3.1-2.1-5.4-4.9-7.7-7.8c-11.2-13.9-34.6-20.6-50.4-9.8c-1.3,0.9-3,2.5-4.4,1.3c-1.4-1.1-0.4-3.1-0.2-4.8
			c1.1-8.9,7.1-13.1,15-15.3C188.8,16.3,193.3,16.1,197.8,16z"/>
		<path class="st2" d="M258.4,97.5c0.5,0,1,0,1.6,0.1c2.1,2.7,4.8,3.8,7.5,1.5c2.6-2.1,1.6-4.7-0.1-7.1c-7-9.5-17-13.9-28.1-16.4
			c-0.8-0.2-1.7-0.1-2.5-0.2c-1.3-0.2-3.1-0.3-3.2-1.7c-0.1-2,2-2,3.3-2.1c8-0.9,15.6,0.8,22.9,3.7c11.5,4.6,22.9,9.8,34.3,14.6
			c2.5,1.1,3.7,2.5,2.8,5.4c-1,3.2-1.6,6.4-2.4,9.7c-2.9,11.5-8,13.7-19.3,11.4c-9.2-1.9-12.5-8.9-17.1-15.1
			C257.1,99.8,258.2,98.7,258.4,97.5z"/>
		<path class="st2" d="M278,24.4c0.1,3-4.9,6.3-7.4,5.5c-10.3-3.1-12.4-2.2-17.3,6.9c-1,1.8-1.2,4.9-3.5,4.9c-2.1,0-2.2-3-3.2-4.6
			c-7.4-12-18.5-18.6-31.9-21.7c-1.8-0.4-4.1-0.6-4.1-2.7c0-1.7,2.4-1.4,3.8-1.6c17.2-2.9,34.3-3,51.1,2.7c4.3,1.5,8.1,3.9,10.9,7.6
			C277.1,22.5,277.6,23.7,278,24.4z"/>
		<path class="st2" d="M339.1,122.2c-3.3-0.6-6.9-1.6-10.5-3.1c-1.4-0.6-2.9-1.2-4.2,0c-1.4,1.3-1.1,2.8-0.5,4.6
			c2.7,7.8,1.8,11.3-3,13c-3.6,1.3-6.5-1.2-9.5-8c-1.1-2.5-1.1-4.6,0.9-6.8c4.3-4.7,6-10.7,6.8-16.8c0.9-6.9,2.5-8.7,9.3-8.2
			c6.4,0.5,12.4,2.4,17.8,5.9c3.6,2.3,5.9,5.3,4.5,10C349.3,117.4,344,122,339.1,122.2z"/>
		<path class="st3" d="M226.3,65.9c2,0.3,1.3,1.3,0.8,2.4c-6.1,12.5-23,19.8-35.6,14.5c-4.8-2-8.9-3-14.2-3
			c-14.6-0.2-27.8-11.2-27.1-28.1c1.6,2,3.2,4.1,4.8,6.1c2,2.3,4.4,4.2,7.3,4.8c4,0.8,7.4,2.3,9.9,5.6c0.1,0.1,0.2,0.3,0.4,0.3
			c6.3,2.1,13,0.4,19.4,2.4c0.9,0.3,2.3-1,2.5-2.2c0.9-4.8,3.8-3.2,6.5-2.1c0,0,0,0,0,0c0.7,0.4,1.3,0.8,2,1.2l-0.1-0.1
			c0.8,0.5,1.5,1,2.3,1.5c1.5,1.1,3.1,2,5,2c1,0,2,0,3,0c0.7-0.2,1.5-0.4,2.2-0.5c0,0,0.4,0.1,0.4,0.1l0.3-0.3
			C219.9,69.8,223.1,67.8,226.3,65.9z"/>
		<path class="st3" d="M78.5,115.9c0.2,7.3-2,10.7-7.4,12.5c-6.8,2.2-10.3,0.3-10.9-6.8c-0.5-6.2-3.5-10.9-6.8-15.8
			c-4.7-6.9-3.8-12.1,2.6-17.3c4.2-3.5,8.8-3.2,12.2,1.1C74.6,97.5,77.6,106.8,78.5,115.9z"/>
		<path class="st3" d="M316.2,102.8c0.2,13.1-10.2,24.4-18.3,25c-3.6,0.3-7-0.1-10.2-1.6c-2.7-1.3-3.7-3.5-0.8-5.2
			c8.5-4.8,11.3-12.6,12.3-21.6c0-0.3,0.1-0.7,0.2-1c1.6-6.1,5.2-10,8.6-9.6c3.9,0.5,7.8,5.9,8.2,11.4
			C316.2,101.2,316.2,102,316.2,102.8z"/>
		<path class="st3" d="M283.1,29.3c5.9,0,10.7,4.8,10.7,10.7c0,5.9-4.8,10.7-10.8,10.7c-5.9,0-10.7-4.8-10.7-10.7
			C272.3,34.1,277.1,29.3,283.1,29.3z"/>
		<path class="st4" d="M201,63.2c-2.1,0.3-3.9-0.5-5.6-1.7c-0.9-0.6-1.6-2.1-2.9-1.2c-1,0.8-0.5,2.2-0.4,3.3
			c0.1,4.9-0.6,5.4-4.9,3.4c-2.8-1.4-5.6-2.1-8.5-0.6c-1.9,1-3.5,0.1-5-1c-3.3-2.5-4.9-6.1-6.3-9.8c-1.2-3.2,0.2-4.8,3.5-4.6
			c6.6,0.4,12.7,2.2,18.6,5.2c0.5,0.5,0.8,1.8,1.8,0.7c0.7-0.8,0-1.5-0.7-2c-1.4-3,0.9-1.7,1.6-1.2C195.7,56.4,198.8,59.3,201,63.2
			C201,63.3,201,63.2,201,63.2z"/>
		<path class="st4" d="M220.6,49.4c-13.4-7.3-26.8-9.9-41.1-10.9C187.5,31.3,215.6,35.2,220.6,49.4z"/>
		<path class="st1" d="M226.3,65.9c-3.2,2-6.4,4-10.3,4.5c-0.3,0-0.5,0-0.7,0.2c-0.7,0.2-1.5,0.4-2.2,0.5c-1-1-2-1-3,0
			c-1.9,0-3.5-0.9-5-2c-0.2-1.4-1-1.8-2.3-1.5c0,0,0.1,0.1,0.1,0.1c-0.2-1.1-1-1.3-2-1.2c0,0,0,0,0,0c0-1.1,0-2.2,0-3.3c0,0,0,0,0,0
			c2.5-1.8,4.6-2.2,7.2,0.5c2.9,3,6.7,1.9,10.1,0.5c2.7-1.1,5.1-3.3,8.3-2.8c0.1,3.3,1.8,1.4,3.1,1
			C230.7,65.8,227.6,64.9,226.3,65.9z"/>
		<path class="st4" d="M229.7,62.5c-1.3,0.5-3,2.4-3.1-1c2.5-3.8-1.4-6.2-2.3-9.7C229.6,53.9,230.6,57.7,229.7,62.5z"/>
		<path class="st5" d="M114.1,335c1.9,0,3.6-0.6,5.2-1.6c0.6-0.2,1.3-0.3,1.9-0.4c0.5-0.2,1-0.4,1.5-0.6c1.4,0.4,2.5-0.2,3.5-1
			c1.3,0.6,3.4-1.4,4.2,1.2c2.3,7,8.4,8.1,14.4,8.5c16.4,1.1,32.5-0.7,47.9-6.6c4.1-1.6,7.8-3.7,10.8-7c4.3-4.9,3-11.7-2.9-14.5
			c-2.5-1.2-5.2-2.2-8.1-1.9l0,0.1c-0.6-0.7-1.2-0.6-1.8,0c-0.3-0.7-2.3-0.1-1.3-1.8c17.1-7.8,33.1-17.8,49.2-27.6
			c11.6-7.1,23-14.7,34.4-22.2c2.9-1.9,4.1-2.3,4.5,2c0.4,4.2,2.3,8.3,7.1,9c4.6,0.7,9.1,0.2,11.4-4.9c1.1-2.5,3.2-3.2,5.6-3.5
			c4-0.5,8-0.8,11.9-1.5c5.3-1,9.8-3.2,11.5-9c1.7-5.8-0.5-10.6-5.7-12.7c-1.6-0.7-4.4,0.1-4.5-2.9c0-3,1-5.7,3.7-7.1
			c11-5.8,22-11.8,34.5-14.1c3.8-0.7,7.6-1,11.4-0.7c6.4,0.6,8.6,4.3,6.3,10.4c-1.8,4.6-4.8,8.4-8.1,11.9
			c-14,15.3-30.1,28.3-46.8,40.5c-42.7,31.1-88.7,56-138.7,73.1c-25.9,8.9-52.3,15.9-79.7,17.9c-9.8,0.7-19.7,1.3-28.9-3.2
			c-3.3-3.3-2.4-6.5,0.4-9.5c5.4-5.7,12.4-8.7,19.6-11.4C96.8,340.6,105.5,337.9,114.1,335z"/>
		<path class="st3" d="M275.7,203.6l0.3,0.1c0,0,0.2-0.2,0.2-0.2c1.6,0.3,3.3,0.7,4.9,0.9c2.9,0.3,4.2,1.4,2.1,4
			c-4.1,5.2-3.3,11-2.5,17c1.1,8.4,2,16.9-1.4,25c-28,21.2-57.8,39.7-89.3,55.3c-2.6,0.4-4.7,2.1-7.1,3.1c-1.6,0.7-3.8,1-5.2,0
			c-1.2-0.8-0.7-2.9-0.3-4.2c3.3-10.6,6.8-21.2,13.5-30.4c2-2.7,3.7-5.8,3.5-9.8c-0.2-5.2,2.6-8.3,8.1-8.8c2-0.2,4.5-0.3,5.4-2.7
			c2.2-6,4-12,4.1-18.4c0.1-0.6,0.1-1.2,0.2-1.8c2.1-6.5,3.4-13.1,2.9-19.9c-0.2-4,0.8-6.5,4.8-7.6c3.1-0.9,5.9-4.6,9.1-3.3
			c8,3.2,16.9,2.9,24.4,6.2c8.1,3.5,13.9,0.9,20.1-2.9C274.3,204.5,275,204,275.7,203.6z"/>
		<path class="st4" d="M299.3,184.6c0.3,0.1,0.5,0.1,0.8-0.1c2.9,1.9,5.9,3.6,8.8,5.6c3.2,2.3,4.2,5.2,2.3,9.1
			c-5.1,10.4-5.8,21.9-7.2,33.1c0,0.5-0.1,0.9-0.1,1.4c-1.2,2.2-1,4.7-0.8,7.1c0,0.5,1.2,0.8,1.9,1.2c1,0,2-0.1,3-0.1
			c0.8,0.3,1.4,0.1,2-0.4c1.2-0.1,2.3-0.1,3.5-0.2c4-0.4,7.4,0.4,8.6,4.9c1.1,4.3-1.3,8.8-5.5,10.5c-5,2-10.5,1.7-15.7,2.6
			c-3.6,0.6-6.4,1.7-8.1,5.5c-2.1,4.7-8.1,4.3-11.7-0.4c-0.2-1.7-0.5-3.3-0.7-5c0.1-0.7,0.2-1.4,0.3-2.2c3.8-8.9,4.5-18.4,3.3-27.8
			c-1-8-1.7-15.5,3.1-22.5c1.6-2.4,0.5-4.1-2.3-4.6c-1.2-0.2-2.3-0.7-3.6-1.1c2.4-1.8,4.3-3.3,6.3-4.8c0.3,0,0.5-0.2,0.6-0.4
			c0,0,0,0,0,0c1-0.8,2-1.6,3-2.5c2.1-1.2,3.8-2.8,5-5c0,0,0,0,0,0c1.1-0.6,1.9-1.5,2.3-2.7l-0.3-0.2c0,0,0.3,0.1,0.3,0.1
			C298.7,185.3,299,184.9,299.3,184.6z"/>
		<path class="st0" d="M212,234.3c-0.1,6.4-1.9,12.5-4.1,18.4c-0.9,2.5-3.5,2.6-5.4,2.7c-5.6,0.5-8.4,3.6-8.1,8.8
			c0.2,4-1.6,7.1-3.5,9.8c-6.7,9.2-10.2,19.8-13.5,30.4c-0.4,1.3-0.9,3.4,0.3,4.2c1.4,1,3.6,0.7,5.2,0c2.4-1,4.4-2.7,7.1-3.1
			c-0.2,1.2-0.5,2.4-0.7,3.6c-1,1.7,1.1,1.1,1.3,1.8c0.6,0,1.2,0,1.8,0c0,0,0-0.1,0-0.1c-0.1,0.6-0.3,1.2-0.4,1.8
			c-4,0.2-7.9,0.5-11.9,0.6c-3.5,0.1-5.2-1.7-5.2-5.2c0.1-2.1,0.1-4.3,0.7-6.4c2.2-8.3,5.3-16.3,9.6-23.6c3.7-6.3,7.5-12.3,7.6-19.9
			c0.8-3.3,4-3.8,6.2-4.2c8.6-1.6,9.1-8.8,11.1-15C210.6,237.4,210,235.3,212,234.3z"/>
		<path class="st0" d="M287.5,196.2c-2,1.5-3.9,3-6.3,4.8c1.3,0.4,2.4,0.9,3.6,1.1c2.8,0.6,4,2.3,2.3,4.6
			c-4.8,7.1-4.2,14.6-3.1,22.5c1.2,9.4,0.5,18.9-3.3,27.8c-1.6-2,0.5-4.9-1.5-6.8c3.4-8.2,2.6-16.6,1.5-25c-0.8-5.9-1.6-11.8,2.5-17
			c2.1-2.6,0.8-3.7-2.1-4c-1.6-0.2-3.3-0.6-4.9-0.9c1.1-1.9,4.7-1.8,3.9-5.1l0,0C282.8,198.5,284.3,194.2,287.5,196.2z"/>
		<path class="st0" d="M305,241.9c-0.7-0.4-1.9-0.8-1.9-1.2c-0.2-2.4-0.5-4.8,0.8-7.1C304.2,236.4,304.6,239.2,305,241.9z"/>
		<path class="st0" d="M280.3,259.3c0.2,1.7,0.5,3.3,0.7,5C278,263,278.6,261.2,280.3,259.3z"/>
		<path class="st0" d="M310,241.4c-0.6,0.5-1.3,0.7-2,0.4C308.5,240.4,309,239.9,310,241.4z"/>
		<path class="st4" d="M192.8,258.3c-0.1,7.6-3.9,13.6-7.6,19.9c-4.4,7.3-7.4,15.3-9.6,23.6c-0.6,2.1-0.6,4.3-0.7,6.4
			c-0.1,3.5,1.6,5.3,5.2,5.2c4-0.2,7.9-0.4,11.9-0.6c1.9,0.6,3.9,1,5.7,1.8c6.7,2.9,7.3,8.7,1.3,13c-2,1.4-4.2,2.6-6.5,3.6
			c-15.4,6.3-31.5,8-47.9,6.9c-4.4-0.3-9.1-1-11.3-5.9c-0.6-4.2,1.3-7.8,4.1-10.5c17.6-16.6,23.6-37.8,24.3-61
			c0.6-0.1,1.1-0.2,1.7-0.3c9.7,0.9,19.2,0,28.6-2.6C192.1,257.9,192.4,258.1,192.8,258.3z"/>
		<path class="st0" d="M275.7,203.6c-0.7,0.5-1.3,0.9-2,1.4c-6.3,3.9-12,6.4-20.1,2.9c-7.6-3.2-16.5-3-24.4-6.2
			c-3.2-1.3-6,2.4-9.1,3.3c-4,1.2-5,3.6-4.8,7.6c0.4,6.8-0.8,13.4-2.9,19.9c-0.8-6.4,0.9-12.7,0.9-19.1c0-5.6-0.4-5.9-5.4-3.9
			c-1.4,0.6-2.8,0.9-4.3,0.6c10.2-5,20.3-10,30.5-14.9c-2.4,5.4-1.8,7,4.3,8c7.4,1.2,14.9,1.7,21.9,4.9c2.5,1.1,5-1.7,7.5-2.8
			C270.2,204.1,272.8,203,275.7,203.6z"/>
		<path class="st0" d="M171.8,221.7c9.9-3.6,19.8-7.3,29.7-10.9c0.7,1.3,0.2,2.3-1.1,2.8c-8.7,3.1-16.9,7.5-26.2,8.6
			C173.4,222.3,172.6,221.9,171.8,221.7z"/>
		<path class="st0" d="M191.8,257.7c-9.4,2.6-18.9,3.6-28.6,2.6c2-2.1,4.8-1.2,7-1.4C177.4,258.4,184.5,256.4,191.8,257.7z"/>
		<path class="st0" d="M201.8,210.6c0.4-0.2,0.9-0.3,1.3-0.5C202.8,210.7,202.4,210.9,201.8,210.6z"/>
		<path class="st1" d="M133.1,332.2c2.3,4.9,6.9,5.6,11.3,5.9c16.4,1.1,32.5-0.6,47.9-6.9c2.3-0.9,4.5-2.1,6.5-3.6
			c6-4.3,5.4-10-1.3-13c-1.8-0.8-3.8-1.2-5.7-1.8c0.1-0.6,0.3-1.2,0.4-1.8c2.9-0.4,5.6,0.6,8.1,1.9c5.9,2.9,7.3,9.6,2.9,14.5
			c-2.9,3.3-6.7,5.4-10.8,7c-15.5,6-31.5,7.8-47.9,6.6c-6-0.4-12.1-1.4-14.4-8.5c-0.8-2.6-2.9-0.6-4.2-1.2
			C128.9,327.2,130.9,330.9,133.1,332.2z"/>
		<path class="st1" d="M122.6,332.4c-0.5,0.2-1,0.4-1.5,0.6C121.6,332.8,122.1,332.6,122.6,332.4z"/>
		<path class="st0" d="M208.8,152.6c-4.3-0.1-7.1-2.9-7.1-7.2c0-3.5,3.2-6.6,6.7-6.6c4,0,7.2,3.3,7.2,7.3
			C215.5,149.4,212.1,152.7,208.8,152.6z"/>
		<path class="st0" d="M198.5,121.4c4.3-0.3,5.6,2.8,5.9,6.3c0.4,3.6-3.3,6.7-7.1,6.6c-3.7-0.2-6.3-3.1-6-7
			C191.6,122.9,194.2,121.2,198.5,121.4z"/>
		<path class="st0" d="M219,170.3c-3.3-0.4-5.5-2.6-5.9-6.3c-0.3-3.1,3.1-6.4,6.3-6.5c3-0.1,6.6,3.4,6.6,6.3
			C225.9,166.9,222.4,170.3,219,170.3z"/>
		<path class="st0" d="M254,182.2c0,0.7,0.2,1.7-0.1,1.9c-6.4,4.2-11.7,10.3-19.9,11C240.6,190.8,247.3,186.5,254,182.2z"/>
		<path class="st0" d="M271.8,162.7c0.5,3-0.4,5-3.6,5.6C269.4,166.4,270.6,164.5,271.8,162.7z"/>
		<path class="st0" d="M264.1,173.2c-0.1,1.5,0.2,3.4-2.4,2.4C262.4,174.8,263.2,174,264.1,173.2z"/>
		<path class="st0" d="M257.9,179c0,1.6-0.6,2.4-2.3,1.8C256.4,180.2,257.2,179.6,257.9,179z"/>
		<path class="st0" d="M255.6,180.8c0.1,1.3-0.7,1.4-1.7,1.4C254.5,181.7,255,181.3,255.6,180.8z"/>
		<path class="st0" d="M261.4,175.8c0.4,1.3-0.5,1.4-1.4,1.4C260.4,176.8,260.9,176.3,261.4,175.8z"/>
		<path class="st0" d="M267.8,168.8c0,0.7-0.3,1.1-1,1.3C267.1,169.7,267.5,169.3,267.8,168.8z"/>
		<path class="st0" d="M266.8,170.1c-0.3,0.4-0.6,0.7-0.9,1.1C266.2,170.8,266.5,170.4,266.8,170.1z"/>
		<path class="st0" d="M265.9,171.1c-0.3,0.4-0.6,0.8-1,1.1C265.3,171.9,265.6,171.5,265.9,171.1z"/>
		<path class="st0" d="M260,177.2c-0.4,0.4-0.8,0.7-1.2,1.1C259.2,177.9,259.6,177.5,260,177.2z"/>
		<path class="st0" d="M296.1,188.4c-1.2,2.1-2.9,3.7-5,5C290.6,189.5,292.3,187.9,296.1,188.4z"/>
		<path class="st0" d="M298.4,185.7c-0.4,1.2-1.2,2.1-2.3,2.7C296.1,186.8,296,185.2,298.4,185.7z"/>
		<path class="st0" d="M299.3,184.6c-0.3,0.4-0.6,0.7-0.9,1.1C298.4,185,298.7,184.6,299.3,184.6z"/>
		<path class="st0" d="M280.1,198.3c-0.1-0.1-0.3-0.1-0.4-0.2C279.8,198.2,279.9,198.2,280.1,198.3
			C280.1,198.3,280.1,198.3,280.1,198.3z"/>
		<path class="st0" d="M288.1,195.8C288.1,195.8,288.1,195.8,288.1,195.8c-0.2-0.2-0.3-0.5-0.5-0.7
			C287.8,195.4,288,195.6,288.1,195.8z"/>
		<path class="st0" d="M202.8,67.6c1.3-0.3,2.1,0.1,2.3,1.5C204.4,68.6,203.6,68.1,202.8,67.6z"/>
		<path class="st0" d="M210.1,71.1c1-1,2-1,3,0C212.1,71.1,211.1,71.1,210.1,71.1z"/>
		<path class="st0" d="M201,66.5c1-0.1,1.8,0.1,2,1.2C202.3,67.3,201.6,66.9,201,66.5z"/>
		<path class="st0" d="M215.3,70.6c0.2-0.2,0.4-0.2,0.7-0.2c0,0-0.3,0.3-0.3,0.3L215.3,70.6z"/>
		<path class="st0" d="M190.5,55c0.7,0.5,1.4,1.2,0.7,2c-0.9,1.1-1.3-0.2-1.8-0.7C189.8,55.8,190.2,55.4,190.5,55z"/>
		<path class="st1" d="M192.3,311.1c-0.6,0-1.2,0-1.8,0C191.1,310.4,191.7,310.3,192.3,311.1z"/>
	</g>
</g>
<g>
	<path class="st6" d="M187.3,327.8c-6.4-2.1-12.8-4.2-19.3-6.4c-0.2-0.1-0.1-0.1,0.5-0.4c38.7-20.3,77.5-40.7,116.2-61
		c0.6-0.3,0.7-0.4,0.9-0.3c12.8,4.3,25.7,8.5,38.6,12.7c0.2,0.1,0.1,0.1-0.5,0.4c-38.7,20.3-77.5,40.7-116.2,61
		c-0.6,0.3-0.7,0.4-0.9,0.3C200.2,332.1,193.7,330,187.3,327.8z M289.1,267.3c0.1-0.3,0.5-0.5,1.1-0.6c0.1,0,0.2,0,0.4,0
		c0.8,0,1.3,0.2,1.5,0.5c0,0,0,0.1,0.1,0.1c0.3,0,0.2-0.1,0.2-0.2c-0.2-0.4-0.8-0.6-1.8-0.6c-0.1,0-0.2,0-0.3,0
		c-0.9,0.1-1.4,0.3-1.3,0.7c0,0.1,0,0.1,0,0.2c0.2,0.5,0.9,0.6,2,0.6c0.8,0,1.1-0.2,1.2-0.6c-1.6,0.6-1.9,0.6-2.9,0
		C289.1,267.4,289.1,267.3,289.1,267.3z M204.1,311.4C204.1,311.4,204.1,311.4,204.1,311.4c-3,1.5-5.9,3.1-8.9,4.6
		c-2.7,1.4-1.9,2.5,2.1,2.9c3.5,0.3,7,0.7,10.6,0.9c2.3,0.1,4.7,0.2,7.1,0.1c1.6-0.1,3-0.4,4-1c1.6-0.9,3.2-1.8,5.1-2.7
		c2.4-1,2.6-2.1,1.8-3.3c-0.2-0.3-0.4-0.7-0.7-1c-1.3-1.7-3.2-3.3-5-4.8c-1.9-1.7-4.6-1.7-7.5-0.2c-0.1,0.1-0.3,0.2-0.4,0.2
		C209.6,308.5,206.8,309.9,204.1,311.4z M217.3,302.7c-0.3,0.2-0.6,0.3-0.9,0.5c-1.1,0.6-1.1,1,0.5,1.3c2.2,0.4,3.5,1.1,4.5,1.9
		c1.7,1.4,2.8,2.9,3.9,4.4c0.8,1.2,1.5,2.3,2.2,3.5c0.3,0.5,0.6,0.5,1.6,0.2c0.4-0.1,0.8-0.3,1.2-0.4c1.8-0.7,3.1-1.5,4.7-2.3
		c1-0.5,1.2-1,0.9-1.6c-0.6-1.1-1.7-2.1-2.8-3.1c-1.1-0.9-2.3-1.9-3.4-2.8c-0.2-0.2-0.8-0.5,0.1-0.6c1.6-0.3,0.5-0.5,0-0.6
		c-1.9-0.6-4-1-6.2-1.3C221,301.4,218.8,301.6,217.3,302.7z M213.5,323.1c1.3-0.7,2.5-1.3,3.4-2.1c0.7-0.6,0.5-0.7-1-0.7
		c-5.6,0-11.1-0.1-16.6-0.4c-3.4-0.2-6.7-0.5-8.9-1.8c-0.6-0.4-1.6-0.3-2.4,0.1c-0.8,0.4-1.6,0.8-2.4,1.3c-0.7,0.4-0.8,0.8-0.5,1.2
		c1,1.4,3.2,2.3,5.7,3.2c0.2,0.1,0.7,0.2,0.8,0c0.3-0.9,1.6-0.4,2.3-0.3c4,0.4,8,0.8,12,1c3.1,0.2,5.6,0,7.3-1.3
		C213.3,323.1,213.4,323.1,213.5,323.1z M284.3,274.1c-4-1.3-8.6-0.9-11.3,1.1c-1.6,1.2-1.4,2.2,0.5,3.2c2.2,1.1,5.5,1.6,8.2,1.2
		c0.2,0,0.4-0.1,0.6-0.1C287.9,278.3,288.9,275.6,284.3,274.1z M248.7,292.8c0.3-0.7,0.2-0.9-0.2-1.2c-1.4-1-4.2-1.1-6.3-0.1
		c-1.5,0.7-2.8,1.5-4.3,2.2c-0.6,0.3-0.5,0.4,0.1,0.7c2.7,0.9,5.3,1.8,8,2.6c2.3,0.8,2.3,0.8,4.2-0.3c0.4-0.2,0.4-0.3-0.1-0.5
		c-0.9-0.3-1.8-0.6-2.7-0.9c-0.3-0.1-0.9-0.2-0.7-0.4c0.2-0.2,0.6-0.4,1.2-0.5c0.6-0.1,1.1-0.1,1.7,0c1.1,0.1,2.1,0.3,3.2,0.4
		c0.4,0.1,0.8,0.1,1.2-0.1c0.7-0.4,1.4-0.7,2.2-1.2C253.5,293.3,251.3,292.8,248.7,292.8z M291.3,270.5c0.4-0.6,0.4-1.1-0.5-1.5
		c-1.6-0.8-4-0.7-6,0.2c-1.4,0.7-2.7,1.5-4.2,2.2c-0.7,0.3-0.5,0.5,0.2,0.7c2.7,0.9,5.3,1.8,8,2.6c2.2,0.7,2.2,0.7,4.1-0.3
		c0.4-0.2,0.4-0.3-0.1-0.5c-0.9-0.3-1.8-0.6-2.7-0.9c-1-0.3-0.9-0.6,0.3-0.9c0.6-0.1,1.1-0.1,1.7,0c1,0.1,2.1,0.3,3.1,0.4
		c0.8,0.1,1.2,0.1,1.8-0.2c1.9-1,1.9-1-0.9-1.4C294.5,270.6,293.1,270.3,291.3,270.5z M251.7,291.2c1.6,0.5,3.2,1,4.7,1.6
		c0.6,0.2,0.9,0.2,1.4-0.1c1.8-1,3.7-2,5.6-2.9c0.8-0.4-0.1-0.5-0.5-0.6c-0.4-0.1-0.8-0.5-1.5-0.1c-0.7,0.4-1.5,0.8-2.3,1.2
		c-1.4,0.7-1.4,0.7-3.1,0.2c-0.6-0.2-0.7-0.3-0.1-0.6c0.8-0.4,1.4-0.8,2.2-1.1c1-0.4,0.8-0.7-0.2-1c-0.7-0.2-1.1-0.2-1.7,0.1
		c-0.6,0.3-1.2,0.7-1.9,1c-1.2,0.6-1.2,0.6-2.7,0.1c-0.6-0.2-0.7-0.4-0.1-0.6c1-0.5,1.9-1,2.9-1.5c0.8-0.4,0.1-0.5-0.4-0.6
		c-0.5-0.1-0.9-0.5-1.7-0.1c-1.8,1-3.6,1.9-5.4,2.8c-0.5,0.3-0.5,0.4,0.1,0.6C248.6,290.1,250.1,290.7,251.7,291.2z M262.9,287.7
		c0.7,0.3,1.2,0.5,1.8,0.7c0.3,0.2,0.6,0.1,1,0c2-0.7,3.7-1.5,4.5-2.5c0.7-0.8,0.2-1.5-1.3-2c-1.4-0.5-3-0.5-4.8,0
		c-0.9,0.2-1.7,0.5-2.6,0.7c-0.6,0.2-1.2,0.3-1.7,0.1c-0.6-0.2-0.3-0.5,0-0.8c0.7-0.5,1.5-0.9,2.6-1.2c0.5-0.1,0.6-0.2,0.1-0.4
		c-0.4-0.1-0.8-0.3-1.1-0.4c-0.4-0.2-0.7-0.2-1.1,0c-1.7,0.6-3.2,1.3-4,2.2c-0.7,0.8-0.4,1.5,1,2c1.4,0.5,2.9,0.5,4.8,0
		c0.7-0.2,1.4-0.4,2.2-0.6c0.8-0.2,1.7-0.4,2.4-0.1c0.7,0.4,0.1,0.7-0.5,1C265.4,287,264.3,287.4,262.9,287.7z M238.4,295.8
		c-0.5-0.2-0.9-0.4-1.2-0.5c-0.6-0.3-1.1-0.3-2,0c-1.1,0.4-2.2,0.9-3.1,1.4c-2.3,1.4-2.2,2.9,0.3,3.9c2.6,1.1,6,1.3,9.1,0.4
		c1.8-0.5,3.1-1.1,4.1-1.9c1.3-0.9,1.2-0.7-0.6-1.2c-0.6-0.2-1-0.3-1.3,0.2c-0.4,0.5-1.1,0.9-1.9,1.3c-1.8,0.8-4.3,0.9-6.2,0.2
		c-1.9-0.7-2.1-1.7-0.5-2.6C236,296.4,237.1,296.1,238.4,295.8z M270.7,282.2c0.7,0.2,1.5,0.5,2.2,0.7c2.2,0.7,2.2,0.7,4.1-0.3
		c0.5-0.3,0.5-0.4-0.1-0.6c-2.1-0.7-4.1-1.3-6.1-2c-1.9-0.6-2-0.7-0.3-1.5c0.9-0.4,0.1-0.5-0.5-0.7c-0.5-0.2-0.9-0.5-1.8,0
		c-1.8,1-3.6,2-5.5,2.9c-0.8,0.4-0.8,0.6,0.2,0.9c0.9,0.3,1.4,0.3,2-0.1c0.2-0.1,0.5-0.2,0.7-0.4c0.4-0.3,0.8-0.3,1.5-0.1
		C268.3,281.4,269.5,281.8,270.7,282.2z M234.9,305c-0.5-0.1-1.5-0.4-2.5-0.7c-0.2-0.1-0.4-0.2-0.7-0.1c-0.4,0.1-0.1,0.2,0,0.4
		c1.3,1.6,2.8,3.1,4.8,4.6c0.3,0.2,0.5,0.3,1.1,0.3c2.1-0.1,3.7-1.3,2.7-2C239.2,306.4,237.3,305.8,234.9,305z M196.7,325.5
		C196.7,325.5,196.7,325.5,196.7,325.5c0.1,0.1,0.2,0.2,0.4,0.2c1.9,0.6,3.7,1.2,6.1,1.4c1.8,0.1,4.1-0.9,3.8-1.7
		c-0.1-0.2-0.4-0.3-0.8-0.3c-3.9-0.5-7.9-0.8-12-0.9c-0.3,0-0.6,0-0.7,0.1c-0.1,0.1,0.1,0.2,0.3,0.3
		C194.8,324.8,195.8,325.2,196.7,325.5z M300,275.4c0.5,0.2,1,0.3,1.5,0.5c0.3,0.1,0.6,0.3,1,0c0.3-0.2-0.1-0.3-0.3-0.3
		c-0.7-0.2-1.4-0.5-2.1-0.7c-0.6-0.2-0.9-0.5-0.2-0.8c0.6-0.3,1.2-0.2,1.8,0c0.5,0.2,0.9,0.3,1.4,0.5c0.5,0.1,0.9,0.6,1.5,0.3
		c0.7-0.4-0.6-0.4-1-0.6c-0.3-0.2-0.9-0.3-1.3-0.4c-0.6-0.2-0.9-0.5-0.4-0.8c0.6-0.3,1.3-0.2,1.9,0c0.8,0.2,1.5,0.5,2.2,0.7
		c0.2,0.1,0.5,0.2,0.8,0c0.3-0.2,0.1-0.2-0.2-0.3c-0.9-0.3-1.7-0.6-2.7-0.9c-1.2-0.3-2.4-0.1-2.8,0.5c-0.1,0.1-0.1,0.4-0.2,0.4
		c-1.2,0.1-1.5,0.7-2.1,0.9c-1.6,0.6-0.1,0.6,0.3,0.8C299.4,275.2,299.7,275.3,300,275.4z M277.1,287.4c0.6,0.2,1.1,0.4,1.7,0.6
		c0.2,0.1,0.4,0.2,0.8,0c0.4-0.2,0.1-0.3-0.2-0.4c-0.8-0.3-1.6-0.5-2.3-0.8c-0.6-0.2-0.6-0.5,0-0.8c0.6-0.3,1.2-0.2,1.8,0
		c0.7,0.2,1.5,0.5,2.2,0.7c0.2,0.1,0.5,0.2,0.8,0c0.4-0.2,0.1-0.3-0.2-0.4c-0.7-0.2-1.5-0.5-2.2-0.7c-1.5-0.5-2.7-0.3-3.3,0.5
		c-0.1,0.1-0.1,0.2-0.1,0.2c-1.8,0.3-0.3,0.5,0.1,0.7C276.3,287.2,276.7,287.3,277.1,287.4z M272.8,290.1
		C272.7,290.1,272.7,290.1,272.8,290.1c-0.5-0.1-0.9-0.3-1.3-0.4c-1.1-0.3-2.2-0.2-2.9,0.3c-0.3,0.2-0.7,0.5-0.2,0.6
		c0.7,0.1,0.3-0.3,0.7-0.4c0,0,0,0,0.1,0c0.3-0.2,0.7-0.3,1.2-0.2c0.7,0.1,0.2,0.3,0.1,0.4c-0.2,0.3-0.5,0.5-0.4,0.8
		c0.1,0.4,0.6,0.7,1.5,0.7c1,0,1.4-0.3,1.7-0.6c0.1-0.1-0.2-0.3,0.3-0.3c1.3-0.1,1-0.3,0.1-0.5C273.3,290.4,273.1,290.2,272.8,290.1
		z M260.5,294.2c-0.3,0.1-0.3,0.2-0.3,0.2c-0.3,0.2-0.8,0.6-0.3,0.7c0.9,0.2,0.4-0.3,0.7-0.4c0.4-0.2,0.8-0.3,1.3-0.2
		c0.7,0.1,0.1,0.3,0,0.5c-0.2,0.3-0.5,0.5-0.4,0.8c0.1,0.3,0.6,0.6,1.5,0.6c0.9,0,1.4-0.2,1.6-0.5c0.2-0.2,0.1-0.5,0.9-0.5
		c0.3,0,0.5-0.2,0-0.3c-1-0.3-1.9-0.6-2.8-0.8C261.8,293.8,261,294,260.5,294.2z M286.7,283.2c0.9,0.3,2,0.2,2.5-0.2
		c0.3-0.2,0.3-0.6,1.2-0.7c0.3,0,0.2-0.2-0.1-0.3c-0.9-0.3-1.7-0.5-2.6-0.8c-1.3-0.4-2.8-0.1-3.2,0.6c-0.1,0.1-0.3,0.3,0.2,0.4
		c0.6,0.1,0.4-0.2,0.5-0.3c0.3-0.3,0.6-0.5,1.4-0.4c1,0.1,0.2,0.4,0.1,0.6C286.2,282.5,285.9,282.9,286.7,283.2z M257.1,298
		c-0.6-0.2-1.1-0.4-1.7-0.6c-0.2-0.1-0.5-0.2-0.8,0c-0.3,0.2-0.2,0.3,0.2,0.4c0.7,0.2,1.3,0.4,2,0.7c0.7,0.2,1,0.5,0.4,0.9
		c-0.7,0.4-1.3,0.2-2,0c-0.7-0.2-1.4-0.5-2.1-0.7c-0.3-0.1-0.5-0.1-0.8,0c-0.3,0.2-0.1,0.2,0.2,0.3c0.5,0.2,1.1,0.4,1.6,0.5
		c2.2,0.7,2.6,0.7,4-0.4c0,0,0,0,0-0.1c2.1-0.4,0.1-0.5-0.2-0.7C257.7,298.2,257.4,298.1,257.1,298z M250.4,301.4
		c-1.3-0.4-3-0.4-3.9,0.2c-0.9,0.5-0.6,1.2,0.7,1.6c1.3,0.4,2.9,0.4,3.9-0.2C252.1,302.5,251.8,301.8,250.4,301.4z M298.9,276
		c-0.5-0.2-1.1-0.4-1.6-0.5c-0.2-0.1-0.4-0.2-0.8,0c-0.4,0.2-0.2,0.3,0.1,0.4c0.8,0.3,1.5,0.5,2.3,0.8c0.5,0.2,0.6,0.5,0.1,0.8
		c-0.6,0.3-1.2,0.3-1.7,0.1c-0.8-0.2-1.5-0.5-2.2-0.7c-0.3-0.1-0.5-0.2-0.9,0c-0.3,0.2,0,0.3,0.2,0.4c0.6,0.2,1.3,0.4,1.9,0.6
		c1.7,0.6,2.7,0.4,3.6-0.5c0.1-0.1,0-0.1,0.1-0.2c2-0.3,0.3-0.5-0.1-0.7C299.6,276.2,299.2,276.1,298.9,276z M267.2,291
		c-0.6,0-1.1,0.6-1.8,0.2c-0.1-0.1-0.4-0.2-0.6,0c-0.2,0.1-0.3,0.3,0,0.3c0.6,0.1,0.3,0.7,1.6,0.6c0.2,0,0.5,0.1,0.7,0.2
		c0.6,0.2,1.2,0.4,1.8,0.6c0.9,0.2,1.6,0.1,2.1-0.3c0.2-0.1,0.4-0.3,0-0.3c-0.3-0.1-0.4,0.1-0.6,0.2c-0.2,0.1-0.5,0.2-0.8,0.1
		c-1.1-0.2-1.9-0.5-2.8-0.9C266.3,291.4,267.6,291.2,267.2,291z M272.9,288c-0.6,0-1.1,0.6-1.8,0.2c-0.1-0.1-0.4-0.2-0.6-0.1
		c-0.2,0.1-0.3,0.2,0,0.3c0.3,0.1,0.7,0.2,0.5,0.4c-0.1,0.1,0.2,0.2,0.4,0.1c0.5-0.2,0.7,0,1,0.1c0.7,0.2,1.4,0.5,2.1,0.7
		c0.8,0.2,1.6,0.1,2.2-0.2c0.2-0.1,0.4-0.2,0.1-0.4c-0.4-0.1-0.5,0.1-0.6,0.2c-0.2,0.1-0.4,0.2-0.7,0.1c-1.1-0.2-1.9-0.5-2.8-0.8
		C272,288.4,273.2,288.3,272.9,288z M260.3,297.1c-1.5-0.2-2.6-0.3-3.8-0.5c-0.3,0-0.6,0-0.7,0.1c-0.2,0.2,0.1,0.2,0.4,0.3
		c1.5,0.2,2.9,0.3,4.4,0.5c0.3,0,0.5,0.1,0.7,0c0.3-0.1,0.1-0.2,0-0.4c-0.7-0.6-1.4-1.1-2.2-1.7c-0.1-0.1-0.2-0.3-0.7-0.1
		c-0.4,0.1-0.2,0.2-0.1,0.3C259,296.1,259.6,296.6,260.3,297.1z M291.3,278.6c0.2-0.1,0.8-0.1,0.5-0.3c-0.3-0.2-0.7,0-1,0.1
		c-0.9,0.3-1.2,0.8-0.9,1.2c0.3,0.5,1.7,0.9,2.9,0.9c1.2,0,2-0.3,2.5-0.8c0.2-0.1,0.5-0.4-0.1-0.4c-0.5-0.1-0.4,0.2-0.6,0.3
		c-0.4,0.3-0.9,0.5-1.7,0.5c-1,0-1.8-0.3-2.2-0.7C290.5,279.1,290.7,278.8,291.3,278.6z M286.6,284.4c0.1-0.1,0.3-0.1,0.3-0.2
		c0.2-0.2,0.6-0.4,0.1-0.5c-0.6-0.1-0.5,0.2-0.6,0.3c-0.4,0.3-0.9,0.4-1.6,0.4c-1.1,0-1.9-0.3-2.2-0.7c-0.3-0.3,0-0.6,0.6-0.8
		c0.3-0.1,0.8-0.2,0.4-0.3c-0.3-0.1-0.7,0-0.9,0.1c-0.8,0.3-1.2,0.7-1,1.1c0.2,0.6,1.1,0.9,2.4,1
		C284.9,284.9,285.8,284.8,286.6,284.4z M263.6,292.6c-0.5,0.3-0.7,0.5-0.4,0.8c0.3,0.3,0.8,0.4,1.5,0.3c0.4,0,0.8-0.1,1.2-0.1
		c0.6-0.1,1.2-0.1,1.4,0.2c0.2,0.3-0.3,0.4-0.8,0.5c-0.3,0-0.5,0.1-0.4,0.2c0.1,0.1,0.4,0.1,0.7,0.1c1-0.2,1.6-0.5,1.4-0.9
		c-0.1-0.4-0.8-0.6-1.8-0.5c-0.4,0-0.8,0.1-1.2,0.1c-0.5,0-1,0.2-1.3-0.1c-0.3-0.2,0.2-0.4,0.6-0.5c0.2-0.1,0.4-0.1,0.2-0.2
		c-0.1-0.1-0.4-0.1-0.6,0C264,292.5,263.7,292.6,263.6,292.6z M250.9,299.8c0.2-0.1,0.7-0.1,0.4-0.3c-0.3-0.1-0.6,0-0.8,0.1
		c-0.7,0.2-1.1,0.5-0.9,0.8c0.2,0.4,0.9,0.5,1.7,0.4c0.4,0,0.8-0.1,1.2-0.1c0.5-0.1,1-0.1,1.2,0.2c0.3,0.3-0.2,0.4-0.7,0.5
		c-0.3,0.1-0.7,0.1-0.4,0.3c0.2,0.2,0.5,0.1,0.8,0c0.9-0.2,1.5-0.5,1.3-0.9c-0.2-0.4-0.9-0.6-2-0.5c-0.4,0-0.9,0.1-1.3,0.1
		c-0.4,0-0.8,0.1-1-0.1C250.3,300,250.6,299.9,250.9,299.8z M288.4,280.6c0.8,0.3,1.7,0.6,2.5,0.8c0.3,0.1,0.6,0.2,1,0
		c0.3-0.2-0.1-0.3-0.3-0.3c-1.7-0.6-3.4-1.1-5.1-1.7c-0.3-0.1-0.5-0.2-0.9,0c-0.3,0.2-0.1,0.3,0.2,0.4
		C286.7,280.1,287.6,280.3,288.4,280.6z M243.6,303.2c-0.6,0.2-0.5,0.3,0,0.5c1.1,0.3,2.1,0.7,3.1,1c0.3,0.1,0.5,0.2,0.9,0
		c0.4-0.2,0.1-0.3-0.2-0.4c-0.7-0.2-1.5-0.5-2.2-0.8c-0.4-0.2-0.9-0.4-0.2-0.6c0.5-0.2,0.5-0.3,0.1-0.4c-0.3-0.1-0.8,0-1,0.2
		C243.9,302.9,244.1,303.2,243.6,303.2z M276.1,288c-0.6-0.2-1.2-0.4-1.7-0.6c-0.3-0.1-0.5-0.1-0.8,0c-0.3,0.1-0.2,0.2,0.1,0.3
		c1.2,0.4,2.3,0.8,3.4,1.1c0.2,0.1,0.4,0.1,0.7,0c0.3-0.1,0.3-0.2,0-0.3C277.3,288.4,276.7,288.2,276.1,288z M294.3,278.4
		c0.5,0.2,1.1,0.4,1.6,0.5c0.3,0.1,0.5,0.2,0.9,0c0.3-0.2,0-0.2-0.2-0.3c-1.1-0.4-2.2-0.7-3.2-1.1c-0.2-0.1-0.5-0.2-0.8,0
		c-0.4,0.2,0,0.3,0.2,0.4C293.3,278,293.8,278.2,294.3,278.4z M228.3,301.5c0.1,0,0.2-0.1,0.3-0.1c-0.7-0.2-1-0.5-0.7-0.9
		c0.2-0.2-0.4-0.4-0.9-0.5c-0.6-0.1-1,0.1-1.3,0.3c-0.2,0.1-0.3,0.2,0,0.3C226.6,300.9,227.5,301.2,228.3,301.5z M230.3,300.6
		c-0.4-0.4-2-0.5-1.3-1.1C227.6,299.9,227.9,300.2,230.3,300.6z M290.1,267.5c0.3,0,0.4,0.3,1.1,0c0.8-0.4-0.1-0.4-0.4-0.6
		c-0.3-0.2-0.7-0.1-1.1,0.1C289.2,267.3,289.7,267.4,290.1,267.5z M290.6,276.9c-0.2,0.1-0.1,0.3,0.2,0.4c0.3,0.1,0.6,0,0.8-0.1
		c0.2-0.1,0.2-0.3-0.2-0.4C291.2,276.8,290.9,276.8,290.6,276.9z M272.6,286.8c-0.3-0.1-0.6-0.1-0.8,0.1c-0.2,0.1-0.2,0.2,0.1,0.3
		c0.3,0.1,0.7,0.1,0.9-0.1C273,287,272.9,286.9,272.6,286.8z"/>
	<path class="st7" d="M204.1,311.4c2.8-1.4,5.5-2.9,8.3-4.3c0.1-0.1,0.3-0.2,0.4-0.2c2.9-1.5,5.6-1.4,7.5,0.2c1.8,1.6,3.7,3.2,5,4.8
		c0.3,0.3,0.5,0.7,0.7,1c0.8,1.2,0.6,2.3-1.8,3.3c-1.9,0.8-3.5,1.7-5.1,2.7c-1.1,0.6-2.4,0.9-4,1c-2.4,0.1-4.8,0-7.1-0.1
		c-3.6-0.2-7.1-0.5-10.6-0.9c-4-0.4-4.7-1.5-2.1-2.9C198.2,314.5,201.1,312.9,204.1,311.4C204.1,311.4,204.1,311.4,204.1,311.4z
		 M219,311.9c-3.4-1.1-8.4-0.9-11.3,0.6c-2.9,1.5-2.6,3.6,0.8,4.7c3.4,1.1,8.4,0.9,11.3-0.6C222.7,315.1,222.4,313,219,311.9z"/>
	<path class="st8" d="M217.3,302.7c1.5-1.1,3.7-1.3,6.2-1c2.3,0.3,4.3,0.7,6.2,1.3c0.4,0.1,1.5,0.3,0,0.6c-0.8,0.1-0.3,0.4-0.1,0.6
		c1.1,0.9,2.3,1.9,3.4,2.8c1.2,1,2.2,2,2.8,3.1c0.3,0.6,0.2,1.1-0.9,1.6c-1.5,0.8-2.9,1.6-4.7,2.3c-0.4,0.1-0.7,0.3-1.2,0.4
		c-1,0.3-1.3,0.3-1.6-0.2c-0.7-1.2-1.4-2.4-2.2-3.5c-1-1.5-2.2-3-3.9-4.4c-1-0.8-2.3-1.5-4.5-1.9c-1.6-0.3-1.7-0.7-0.5-1.3
		C216.7,303,217,302.8,217.3,302.7z"/>
	<path class="st8" d="M213.5,323.1c-0.1,0-0.2,0.1-0.3,0.1c-1.7,1.3-4.3,1.5-7.3,1.3c-4.1-0.3-8-0.7-12-1c-0.7-0.1-2.1-0.6-2.3,0.3
		c-0.1,0.2-0.5,0.1-0.8,0c-2.5-0.9-4.7-1.8-5.7-3.2c-0.3-0.4-0.1-0.9,0.5-1.2c0.7-0.4,1.5-0.9,2.4-1.3c0.8-0.4,1.8-0.4,2.4-0.1
		c2.1,1.3,5.5,1.5,8.9,1.8c5.5,0.4,11,0.4,16.6,0.4c1.5,0,1.7,0.1,1,0.7C216,321.7,214.8,322.4,213.5,323.1z"/>
	<path class="st9" d="M284.3,274.1c4.6,1.5,3.6,4.2-2,5.4c-0.2,0-0.4,0.1-0.6,0.1c-2.7,0.4-6,0-8.2-1.2c-1.9-1-2.1-2-0.5-3.2
		C275.7,273.2,280.2,272.8,284.3,274.1z M281.4,275.4c-0.4-0.1-1.1-0.3-2-0.4c-1.3-0.1-2.4,0-3.3,0.5c-0.9,0.5-0.9,0.9-0.2,1.4
		c0.9,0.7,2.3,1.1,4.1,1.3c1.2,0.1,2.3,0,3.1-0.4c0.9-0.5,1-0.9,0.4-1.4C283.1,276,282.4,275.7,281.4,275.4z"/>
	<path class="st9" d="M248.7,292.8c2.6,0,4.8,0.5,7.4,0.8c-0.8,0.4-1.6,0.8-2.2,1.2c-0.4,0.2-0.8,0.1-1.2,0.1
		c-1.1-0.1-2.1-0.3-3.2-0.4c-0.5-0.1-1.1-0.1-1.7,0c-0.6,0.1-1,0.3-1.2,0.5c-0.2,0.2,0.4,0.3,0.7,0.4c0.9,0.3,1.8,0.6,2.7,0.9
		c0.5,0.2,0.5,0.3,0.1,0.5c-1.9,1.1-1.9,1.1-4.2,0.3c-2.7-0.9-5.3-1.8-8-2.6c-0.7-0.2-0.7-0.4-0.1-0.7c1.5-0.7,2.8-1.5,4.3-2.2
		c2.1-1,4.9-1,6.3,0.1C248.9,291.9,248.9,292.2,248.7,292.8z M243,293.9c0.6,0.2,1.1,0.6,2,0c1.1-0.7,1.4-1,0.5-1.3
		c-0.8-0.3-1.7-0.1-3,0.5C241.3,293.7,242.6,293.7,243,293.9z"/>
	<path class="st9" d="M291.3,270.5c1.8-0.2,3.2,0.2,4.7,0.4c2.8,0.3,2.7,0.3,0.9,1.4c-0.6,0.3-1,0.3-1.8,0.2c-1-0.2-2-0.3-3.1-0.4
		c-0.6-0.1-1.1-0.1-1.7,0c-1.2,0.3-1.3,0.6-0.3,0.9c0.9,0.3,1.8,0.6,2.7,0.9c0.5,0.2,0.5,0.3,0.1,0.5c-1.8,1.1-1.8,1.1-4.1,0.3
		c-2.7-0.9-5.3-1.8-8-2.6c-0.7-0.2-0.8-0.4-0.2-0.7c1.4-0.7,2.7-1.5,4.2-2.2c1.9-0.9,4.3-1,6-0.2
		C291.7,269.4,291.7,269.9,291.3,270.5z M285.7,271.5c0.6,0.2,1,0.6,2,0c1.1-0.7,1.4-1,0.5-1.3c-0.8-0.3-1.8-0.1-3,0.5
		C284.1,271.2,285.2,271.3,285.7,271.5z"/>
	<path class="st9" d="M251.7,291.2c-1.6-0.5-3.2-1.1-4.8-1.6c-0.6-0.2-0.6-0.3-0.1-0.6c1.8-0.9,3.7-1.9,5.4-2.8
		c0.8-0.4,1.2-0.1,1.7,0.1c0.5,0.1,1.2,0.3,0.4,0.6c-1,0.5-1.9,1-2.9,1.5c-0.5,0.3-0.5,0.4,0.1,0.6c1.5,0.5,1.4,0.5,2.7-0.1
		c0.6-0.3,1.3-0.6,1.9-1c0.5-0.3,0.9-0.3,1.7-0.1c1,0.3,1.2,0.5,0.2,1c-0.8,0.3-1.4,0.8-2.2,1.1c-0.6,0.3-0.5,0.4,0.1,0.6
		c1.7,0.5,1.6,0.6,3.1-0.2c0.8-0.4,1.6-0.8,2.3-1.2c0.8-0.4,1.1,0,1.5,0.1c0.4,0.1,1.3,0.2,0.5,0.6c-1.9,1-3.8,1.9-5.6,2.9
		c-0.5,0.3-0.8,0.3-1.4,0.1C254.9,292.2,253.3,291.7,251.7,291.2z"/>
	<path class="st9" d="M262.9,287.7c1.4-0.3,2.5-0.7,3.4-1.2c0.5-0.3,1.2-0.7,0.5-1c-0.7-0.4-1.6-0.1-2.4,0.1
		c-0.7,0.2-1.4,0.4-2.2,0.6c-1.9,0.5-3.3,0.5-4.8,0c-1.4-0.5-1.8-1.1-1-2c0.8-0.9,2.3-1.6,4-2.2c0.4-0.1,0.8-0.2,1.1,0
		c0.3,0.2,0.7,0.3,1.1,0.4c0.4,0.2,0.3,0.2-0.1,0.4c-1.1,0.3-1.9,0.7-2.6,1.2c-0.4,0.3-0.6,0.5,0,0.8c0.5,0.2,1.2,0.1,1.7-0.1
		c0.9-0.2,1.7-0.5,2.6-0.7c1.8-0.5,3.4-0.4,4.8,0c1.5,0.5,2,1.2,1.3,2c-0.9,1-2.6,1.8-4.5,2.5c-0.4,0.1-0.7,0.1-1,0
		C264.1,288.2,263.6,288,262.9,287.7z"/>
	<path class="st9" d="M238.4,295.8c-1.3,0.3-2.4,0.6-3.2,1.1c-1.6,0.9-1.4,1.9,0.5,2.6c1.9,0.7,4.4,0.6,6.2-0.2
		c0.8-0.4,1.5-0.8,1.9-1.3c0.3-0.4,0.7-0.4,1.3-0.2c1.7,0.6,1.8,0.3,0.6,1.2c-1,0.8-2.4,1.4-4.1,1.9c-3.1,0.8-6.5,0.7-9.1-0.4
		c-2.4-1-2.5-2.5-0.3-3.9c0.8-0.5,1.9-1,3.1-1.4c0.8-0.3,1.4-0.3,2,0C237.5,295.5,237.9,295.6,238.4,295.8z"/>
	<path class="st9" d="M270.7,282.2c-1.2-0.4-2.5-0.8-3.6-1.2c-0.6-0.2-1-0.2-1.5,0.1c-0.2,0.1-0.5,0.2-0.7,0.4
		c-0.6,0.4-1.1,0.4-2,0.1c-0.9-0.3-1-0.5-0.2-0.9c1.9-0.9,3.7-1.9,5.5-2.9c0.8-0.5,1.2-0.1,1.8,0c0.5,0.2,1.3,0.3,0.5,0.7
		c-1.7,0.8-1.6,0.9,0.3,1.5c2,0.7,4,1.3,6.1,2c0.6,0.2,0.6,0.3,0.1,0.6c-1.9,1-1.8,1-4.1,0.3C272.2,282.7,271.5,282.4,270.7,282.2z"
		/>
	<path class="st7" d="M234.9,305c2.4,0.8,4.3,1.4,5.4,2.4c1,0.8-0.6,1.9-2.7,2c-0.6,0-0.9-0.1-1.1-0.3c-2-1.5-3.5-3-4.8-4.6
		c-0.1-0.1-0.3-0.3,0-0.4c0.3-0.1,0.5,0,0.7,0.1C233.4,304.5,234.4,304.8,234.9,305z"/>
	<path class="st7" d="M196.7,325.5c-1-0.3-2-0.6-2.9-1c-0.2-0.1-0.4-0.2-0.3-0.3c0.1-0.1,0.5-0.1,0.7-0.1c4.1,0.2,8.1,0.4,12,0.9
		c0.4,0.1,0.7,0.1,0.8,0.3c0.4,0.7-2,1.8-3.8,1.7c-2.4-0.2-4.2-0.8-6.1-1.4C197,325.6,196.8,325.6,196.7,325.5
		C196.7,325.5,196.7,325.5,196.7,325.5z"/>
	<path class="st10" d="M300,275.4c-0.3-0.1-0.7-0.2-0.9-0.3c-0.4-0.2-2-0.2-0.3-0.8c0.7-0.2,0.9-0.8,2.1-0.9c0.1,0,0.1-0.2,0.2-0.4
		c0.4-0.6,1.6-0.9,2.8-0.5c0.9,0.3,1.8,0.6,2.7,0.9c0.2,0.1,0.4,0.2,0.2,0.3c-0.3,0.2-0.5,0.1-0.8,0c-0.7-0.2-1.5-0.5-2.2-0.7
		c-0.6-0.2-1.3-0.3-1.9,0c-0.5,0.3-0.2,0.6,0.4,0.8c0.4,0.1,1,0.3,1.3,0.4c0.4,0.2,1.7,0.2,1,0.6c-0.6,0.3-1-0.1-1.5-0.3
		c-0.5-0.1-1-0.3-1.4-0.5c-0.6-0.2-1.2-0.3-1.8,0c-0.6,0.3-0.3,0.6,0.2,0.8c0.7,0.2,1.4,0.5,2.1,0.7c0.2,0.1,0.7,0.1,0.3,0.3
		c-0.4,0.2-0.7,0.1-1,0C301,275.7,300.5,275.6,300,275.4z"/>
	<path class="st10" d="M277.1,287.4c-0.3-0.1-0.7-0.2-1-0.3c-0.4-0.2-1.9-0.4-0.1-0.7c0.1,0,0.1-0.1,0.1-0.2c0.7-0.8,1.8-1,3.3-0.5
		c0.8,0.2,1.5,0.5,2.2,0.7c0.3,0.1,0.5,0.2,0.2,0.4c-0.3,0.1-0.5,0.1-0.8,0c-0.7-0.2-1.5-0.5-2.2-0.7c-0.6-0.2-1.2-0.3-1.8,0
		c-0.6,0.3-0.5,0.6,0,0.8c0.7,0.3,1.5,0.5,2.3,0.8c0.3,0.1,0.6,0.2,0.2,0.4c-0.3,0.2-0.6,0-0.8,0
		C278.2,287.8,277.6,287.6,277.1,287.4z"/>
	<path class="st10" d="M272.8,290.1c0.3,0.1,0.6,0.2,0.9,0.3c0.8,0.2,1.2,0.4-0.1,0.5c-0.5,0-0.2,0.2-0.3,0.3
		c-0.3,0.4-0.7,0.6-1.7,0.6c-1,0-1.5-0.3-1.5-0.7c-0.1-0.3,0.2-0.5,0.4-0.8c0.1-0.2,0.6-0.3-0.1-0.4c-0.6-0.1-0.9,0-1.2,0.2
		c0,0,0,0-0.1,0c-0.3,0.1,0.1,0.5-0.7,0.4c-0.6-0.1-0.1-0.4,0.2-0.6c0.7-0.5,1.8-0.6,2.9-0.3C271.9,289.9,272.3,290,272.8,290.1
		C272.7,290.1,272.7,290.1,272.8,290.1z M271.4,290.3c-0.4,0.4-1.1,0.8,0,1.1c0.4,0.1,0.9,0.1,1.1-0.1
		C272.9,290.7,272.3,290.5,271.4,290.3z"/>
	<path class="st10" d="M260.5,294.2c0.5-0.2,1.3-0.4,2.3-0.1c0.9,0.3,1.9,0.6,2.8,0.8c0.5,0.1,0.2,0.3,0,0.3c-0.8,0-0.7,0.3-0.9,0.5
		c-0.2,0.3-0.8,0.5-1.6,0.5c-0.8,0-1.3-0.2-1.5-0.6c-0.1-0.3,0.2-0.6,0.4-0.8c0.1-0.2,0.7-0.3,0-0.5c-0.6-0.1-0.9,0.1-1.3,0.2
		c-0.3,0.1,0.1,0.6-0.7,0.4c-0.5-0.1,0-0.5,0.3-0.7C260.2,294.4,260.2,294.4,260.5,294.2z M263.6,294.9c-0.2-0.1-0.4-0.2-0.8-0.1
		c-0.5,0.2-0.6,0.8-0.1,0.9c0.4,0.2,0.8,0.2,1.2,0C264.5,295.4,264,295.1,263.6,294.9z"/>
	<path class="st10" d="M286.7,283.2c-0.8-0.3-0.5-0.7-0.2-1.1c0.1-0.2,1-0.5-0.1-0.6c-0.8-0.1-1.1,0.2-1.4,0.4
		c-0.1,0.1,0.1,0.4-0.5,0.3c-0.5,0-0.2-0.2-0.2-0.4c0.4-0.7,1.9-1,3.2-0.6c0.9,0.3,1.7,0.5,2.6,0.8c0.3,0.1,0.4,0.3,0.1,0.3
		c-0.9,0.1-0.9,0.4-1.2,0.7C288.7,283.4,287.6,283.5,286.7,283.2z M287.5,281.8c-0.3,0.4-1.1,0.8,0,1.1c0.4,0.1,0.9,0.1,1.1-0.1
		C289.1,282.2,288.5,282,287.5,281.8z"/>
	<path class="st10" d="M257.1,298c0.3,0.1,0.6,0.2,0.8,0.3c0.3,0.2,2.3,0.3,0.2,0.7c0,0,0,0,0,0.1c-1.5,1.1-1.8,1.2-4,0.4
		c-0.5-0.2-1.1-0.4-1.6-0.5c-0.3-0.1-0.5-0.2-0.2-0.3c0.3-0.1,0.5-0.1,0.8,0c0.7,0.2,1.4,0.5,2.1,0.7c0.6,0.2,1.3,0.4,2,0
		c0.7-0.4,0.3-0.6-0.4-0.9c-0.7-0.2-1.3-0.5-2-0.7c-0.3-0.1-0.5-0.2-0.2-0.4c0.3-0.1,0.5-0.1,0.8,0
		C255.9,297.6,256.5,297.8,257.1,298z"/>
	<path class="st10" d="M250.4,301.4c1.3,0.4,1.6,1.1,0.7,1.6c-1,0.5-2.5,0.6-3.9,0.2c-1.3-0.4-1.6-1.1-0.7-1.6
		C247.5,301,249.1,301,250.4,301.4z M247.9,302.8c0.5,0.2,1.1,0.3,1.8,0.3c0.7-0.1,1.2-0.3,1.1-0.6c0-0.4-1.6-1-2.7-0.9
		c-0.8,0-1.2,0.2-1.3,0.6C246.8,302.4,247.3,302.6,247.9,302.8z"/>
	<path class="st10" d="M298.9,276c0.3,0.1,0.7,0.2,1,0.3c0.4,0.2,2.1,0.4,0.1,0.7c-0.1,0-0.1,0.1-0.1,0.2c-0.9,0.9-1.8,1-3.6,0.5
		c-0.6-0.2-1.3-0.4-1.9-0.6c-0.3-0.1-0.6-0.2-0.2-0.4c0.3-0.2,0.6-0.1,0.9,0c0.7,0.2,1.5,0.5,2.2,0.7c0.6,0.2,1.2,0.2,1.7-0.1
		c0.5-0.3,0.5-0.5-0.1-0.8c-0.7-0.3-1.5-0.5-2.3-0.8c-0.3-0.1-0.5-0.2-0.1-0.4c0.3-0.2,0.6,0,0.8,0
		C297.8,275.6,298.3,275.8,298.9,276z"/>
	<path class="st9" d="M267.2,291c0.4,0.3-0.9,0.4-0.3,0.6c0.9,0.3,1.7,0.7,2.8,0.9c0.3,0.1,0.6,0,0.8-0.1c0.1-0.1,0.2-0.2,0.6-0.2
		c0.3,0.1,0.2,0.2,0,0.3c-0.5,0.4-1.3,0.5-2.1,0.3c-0.6-0.2-1.2-0.4-1.8-0.6c-0.2-0.1-0.5-0.2-0.7-0.2c-1.3,0.2-1-0.4-1.6-0.6
		c-0.3-0.1-0.2-0.2,0-0.3c0.3-0.1,0.5,0,0.6,0C266.1,291.5,266.6,291,267.2,291z"/>
	<path class="st9" d="M272.9,288c0.3,0.3-0.9,0.4-0.3,0.7c0.9,0.3,1.7,0.7,2.8,0.8c0.3,0,0.5,0,0.7-0.1c0.2-0.1,0.2-0.3,0.6-0.2
		c0.3,0.1,0,0.2-0.1,0.4c-0.6,0.4-1.3,0.5-2.2,0.2c-0.7-0.2-1.4-0.5-2.1-0.7c-0.3-0.1-0.5-0.3-1-0.1c-0.3,0.1-0.6,0-0.4-0.1
		c0.2-0.3-0.2-0.3-0.5-0.4c-0.3-0.1-0.2-0.2,0-0.3c0.3-0.1,0.5,0,0.6,0.1C271.8,288.6,272.3,288,272.9,288z"/>
	<path class="st10" d="M260.3,297.1c-0.7-0.6-1.3-1-1.9-1.4c-0.1-0.1-0.3-0.2,0.1-0.3c0.4-0.1,0.5,0,0.7,0.1
		c0.7,0.6,1.4,1.1,2.2,1.7c0.1,0.1,0.3,0.2,0,0.4c-0.2,0.1-0.5,0-0.7,0c-1.5-0.2-2.9-0.3-4.4-0.5c-0.3,0-0.6-0.1-0.4-0.3
		c0.2-0.2,0.4-0.2,0.7-0.1C257.7,296.8,258.9,296.9,260.3,297.1z"/>
	<path class="st10" d="M291.3,278.6c-0.6,0.2-0.9,0.5-0.6,0.8c0.4,0.4,1.1,0.6,2.2,0.7c0.8,0,1.3-0.2,1.7-0.5
		c0.1-0.1,0.1-0.4,0.6-0.3c0.5,0.1,0.2,0.3,0.1,0.4c-0.5,0.4-1.3,0.7-2.5,0.8c-1.3,0-2.6-0.4-2.9-0.9c-0.3-0.5,0-0.9,0.9-1.2
		c0.3-0.1,0.7-0.3,1-0.1C292.1,278.4,291.5,278.5,291.3,278.6z"/>
	<path class="st10" d="M286.6,284.4c-0.8,0.4-1.6,0.5-2.7,0.4c-1.3-0.1-2.2-0.4-2.4-1c-0.2-0.4,0.2-0.8,1-1.1
		c0.2-0.1,0.6-0.3,0.9-0.1c0.4,0.2-0.1,0.2-0.4,0.3c-0.6,0.2-0.9,0.5-0.6,0.8c0.4,0.4,1.2,0.7,2.2,0.7c0.7,0,1.2-0.2,1.6-0.4
		c0.2-0.1,0-0.4,0.6-0.3c0.5,0.1,0.1,0.3-0.1,0.5C286.8,284.3,286.6,284.3,286.6,284.4z"/>
	<path class="st10" d="M263.6,292.6c0.2,0,0.4-0.1,0.7-0.2c0.2-0.1,0.4-0.1,0.6,0c0.1,0.1,0,0.2-0.2,0.2c-0.4,0.1-0.9,0.3-0.6,0.5
		c0.3,0.2,0.8,0.1,1.3,0.1c0.4,0,0.8-0.1,1.2-0.1c1,0,1.7,0.1,1.8,0.5c0.2,0.4-0.5,0.7-1.4,0.9c-0.2,0-0.5,0.1-0.7-0.1
		c-0.1-0.1,0.1-0.2,0.4-0.2c0.6-0.1,1-0.2,0.8-0.5c-0.2-0.3-0.8-0.3-1.4-0.2c-0.4,0-0.8,0.1-1.2,0.1c-0.7,0-1.2-0.1-1.5-0.3
		C262.9,293.1,263.1,292.9,263.6,292.6z"/>
	<path class="st10" d="M250.9,299.8c-0.3,0.1-0.7,0.2-0.5,0.4c0.2,0.2,0.6,0.1,1,0.1c0.4,0,0.9-0.1,1.3-0.1c1-0.1,1.8,0.1,2,0.5
		c0.2,0.4-0.4,0.7-1.3,0.9c-0.3,0.1-0.6,0.2-0.8,0c-0.2-0.2,0.1-0.2,0.4-0.3c0.5-0.1,1-0.3,0.7-0.5c-0.2-0.2-0.7-0.2-1.2-0.2
		c-0.4,0-0.8,0.1-1.2,0.1c-0.8,0.1-1.5,0-1.7-0.4c-0.2-0.3,0.1-0.6,0.9-0.8c0.2-0.1,0.6-0.2,0.8-0.1
		C251.6,299.6,251.2,299.7,250.9,299.8z"/>
	<path class="st10" d="M288.4,280.6c-0.9-0.3-1.7-0.6-2.6-0.9c-0.3-0.1-0.5-0.2-0.2-0.4c0.4-0.2,0.6-0.1,0.9,0
		c1.7,0.6,3.4,1.1,5.1,1.7c0.2,0.1,0.7,0.1,0.3,0.3c-0.4,0.2-0.7,0.1-1,0C290.1,281.2,289.3,280.9,288.4,280.6z"/>
	<path class="st10" d="M243.6,303.2c0.5-0.1,0.3-0.3,0.5-0.4c0.3-0.1,0.7-0.3,1-0.2c0.3,0.1,0.3,0.2-0.1,0.4
		c-0.7,0.2-0.2,0.4,0.2,0.6c0.7,0.3,1.5,0.5,2.2,0.8c0.3,0.1,0.6,0.2,0.2,0.4c-0.4,0.2-0.6,0-0.9,0c-1-0.3-2.1-0.7-3.1-1
		C243.1,303.6,243,303.4,243.6,303.2z"/>
	<path class="st10" d="M276.1,288c0.6,0.2,1.1,0.4,1.7,0.6c0.3,0.1,0.3,0.2,0,0.3c-0.3,0.1-0.5,0.1-0.7,0c-1.1-0.4-2.3-0.8-3.4-1.1
		c-0.3-0.1-0.4-0.2-0.1-0.3c0.3-0.1,0.5-0.1,0.8,0C275,287.6,275.6,287.8,276.1,288z"/>
	<path class="st9" d="M294.3,278.4c-0.5-0.2-1-0.3-1.5-0.5c-0.3-0.1-0.6-0.2-0.2-0.4c0.3-0.2,0.6,0,0.8,0c1.1,0.4,2.2,0.7,3.2,1.1
		c0.2,0.1,0.5,0.2,0.2,0.3c-0.4,0.2-0.6,0.1-0.9,0C295.4,278.7,294.8,278.5,294.3,278.4z"/>
	<path class="st10" d="M228.3,301.5c-0.9-0.3-1.7-0.6-2.6-0.8c-0.3-0.1-0.3-0.2,0-0.3c0.4-0.2,0.7-0.4,1.3-0.3
		c0.5,0.1,1.1,0.2,0.9,0.5c-0.3,0.4,0,0.7,0.7,0.9C228.5,301.4,228.4,301.4,228.3,301.5z M226.7,300.6c0.3,0,0.4,0.2,0.7,0.1
		c0.3-0.2,0.1-0.3-0.2-0.4c-0.3-0.1-0.7-0.1-0.9,0C225.9,300.5,226.5,300.5,226.7,300.6z"/>
	<path class="st10" d="M230.3,300.6c-2.3-0.4-2.6-0.6-1.3-1.1C228.3,300.1,229.8,300.2,230.3,300.6z"/>
	<path class="st10" d="M290.1,267.5c-0.4-0.1-0.9-0.2-0.4-0.5c0.3-0.2,0.8-0.3,1.1-0.1c0.2,0.2,1.1,0.2,0.4,0.6
		C290.5,267.9,290.4,267.5,290.1,267.5z"/>
	<path class="st10" d="M289.1,267.4c1,0.6,1.4,0.6,2.9,0c-0.1,0.3-0.4,0.5-1.2,0.6c-1.1,0.1-1.8-0.1-2-0.6
		C288.9,267.5,289,267.5,289.1,267.4z"/>
	<path class="st10" d="M290.6,276.9c0.2-0.1,0.6-0.2,0.8-0.1c0.3,0.1,0.4,0.2,0.2,0.4c-0.2,0.1-0.5,0.2-0.8,0.1
		C290.5,277.2,290.4,277.1,290.6,276.9z"/>
	<path class="st10" d="M272.6,286.8c0.3,0.1,0.4,0.2,0.2,0.3c-0.2,0.2-0.6,0.2-0.9,0.1c-0.3-0.1-0.3-0.2-0.1-0.3
		C272,286.7,272.3,286.7,272.6,286.8z"/>
	<path class="st10" d="M292.1,267.2c-0.3-0.3-0.8-0.5-1.5-0.5c0,0,0-0.1-0.1-0.1c1,0,1.7,0.2,1.8,0.6
		C292.3,267.2,292.2,267.2,292.1,267.2z"/>
	<path class="st10" d="M290.2,266.7c-0.6,0.1-1,0.3-1.1,0.6c-0.1,0-0.2,0-0.2,0c0-0.4,0.5-0.6,1.3-0.7
		C290.2,266.6,290.2,266.6,290.2,266.7z"/>
	<path class="st10" d="M292.3,267.2c0,0.1,0.1,0.2-0.2,0.2c0,0,0-0.1-0.1-0.1C292.2,267.2,292.3,267.2,292.3,267.2z"/>
	<path class="st10" d="M290.2,266.6c0.1,0,0.2,0,0.3,0c0,0,0,0.1,0.1,0.1c-0.1,0-0.2,0-0.4,0C290.2,266.6,290.2,266.6,290.2,266.6z"
		/>
	<path class="st10" d="M289.1,267.3c0,0.1,0,0.1,0,0.2c-0.1,0-0.2,0-0.3,0c0-0.1,0-0.1,0-0.2C288.9,267.3,289,267.3,289.1,267.3z"/>
	<path class="st6" d="M219,311.9c3.4,1.1,3.7,3.2,0.8,4.7c-2.9,1.5-7.9,1.8-11.3,0.6c-3.4-1.1-3.7-3.2-0.8-4.7
		C210.6,311,215.6,310.8,219,311.9z M219.1,316.4c2.5-1.3,2.2-3.2-0.9-4.2c-3-1-7.3-0.7-9.9,0.6c-2.6,1.3-2.2,3.2,0.8,4.2
		C212.2,318,216.6,317.7,219.1,316.4z"/>
	<path class="st6" d="M281.4,275.4c1,0.3,1.7,0.6,2.1,1c0.5,0.5,0.5,1-0.4,1.4c-0.9,0.4-1.9,0.5-3.1,0.4c-1.8-0.2-3.2-0.6-4.1-1.3
		c-0.6-0.5-0.6-0.9,0.2-1.4c0.9-0.5,2-0.6,3.3-0.5C280.2,275,281,275.2,281.4,275.4z"/>
	<path class="st6" d="M243,293.9c-0.4-0.2-1.7-0.3-0.6-0.8c1.3-0.6,2.2-0.8,3-0.5c0.9,0.3,0.7,0.6-0.5,1.3
		C244.1,294.5,243.6,294.1,243,293.9z"/>
	<path class="st6" d="M285.7,271.5c-0.5-0.2-1.6-0.3-0.5-0.8c1.3-0.6,2.2-0.8,3-0.5c0.8,0.3,0.6,0.7-0.5,1.3
		C286.8,272.1,286.3,271.6,285.7,271.5z"/>
	<path class="st6" d="M271.4,290.3c0.9,0.2,1.6,0.5,1.1,1c-0.2,0.2-0.7,0.3-1.1,0.1C270.3,291,270.9,290.7,271.4,290.3z"/>
	<path class="st6" d="M263.6,294.9c0.5,0.2,0.9,0.5,0.3,0.8c-0.4,0.2-0.9,0.2-1.2,0c-0.4-0.2-0.3-0.8,0.1-0.9
		C263.2,294.7,263.3,294.8,263.6,294.9z"/>
	<path class="st6" d="M287.5,281.8c0.9,0.2,1.6,0.5,1.1,1c-0.2,0.2-0.7,0.3-1.1,0.1C286.5,282.5,287.2,282.2,287.5,281.8z"/>
	<path class="st6" d="M247.9,302.8c-0.6-0.2-1.1-0.4-1-0.7c0-0.3,0.5-0.5,1.3-0.6c1.1-0.1,2.6,0.5,2.7,0.9c0,0.3-0.4,0.5-1.1,0.6
		C248.9,303.1,248.4,303,247.9,302.8z"/>
	<path class="st6" d="M226.7,300.6c-0.1-0.1-0.7-0.1-0.4-0.3c0.3-0.1,0.6-0.1,0.9,0c0.3,0.1,0.4,0.2,0.2,0.4
		C227.1,300.9,226.9,300.7,226.7,300.6z"/>
	<path class="st11" d="M219.1,316.4c-2.6,1.4-6.9,1.6-9.9,0.6c-3-1-3.4-2.8-0.8-4.2c2.5-1.3,6.9-1.6,9.9-0.6
		C221.3,313.2,221.7,315,219.1,316.4z"/>
</g>
</svg>
